<?xml version="1.0" standalone="no"?>
<!DOCTYPE svg PUBLIC "-//W3C//DTD SVG 1.1//EN" "http://www.w3.org/Graphics/SVG/1.1/DTD/svg11.dtd" >
<svg xmlns="http://www.w3.org/2000/svg" xmlns:xlink="http://www.w3.org/1999/xlink" version="1.1" viewBox="-10 0 1044 1024">
   <path fill="currentColor"
d="M770 47q119 71 185 187q72 128 68 257q3 50 -16 133q-10 45 -50 124q-73 120 -187 186q-121 69 -258 69q-70 0 -133 -18q-66 -17 -123 -51q-117 -66 -186 -187q-68 -116 -70 -256q2 -75 18 -134q20 -70 52 -123q65 -117 186 -187q116 -68 256 -68q71 0 135 16
q60 17 123 52zM289 179l536 536q37 -53 54 -106q18 -62 17 -118q1 -159 -112 -272q-112 -112 -271 -112q-62 0 -118 18q-57 19 -106 54zM128 491q2 163 113 271q116 113 272 113q61 0 116 -18q55 -17 104 -52l-534 -535q-32 41 -53 104q-16 50 -18 117z" />
</svg>
