<?xml version="1.0" standalone="no"?>
<!DOCTYPE svg PUBLIC "-//W3C//DTD SVG 1.1//EN" "http://www.w3.org/Graphics/SVG/1.1/DTD/svg11.dtd" >
<svg xmlns="http://www.w3.org/2000/svg" xmlns:xlink="http://www.w3.org/1999/xlink" version="1.1" viewBox="-10 0 1044 1024">
   <path fill="currentColor"
d="M256 0h512q108 0 182 74t74 182v512q0 108 -74 182t-182 74h-512q-108 0 -182 -74t-74 -182v-512q0 -108 74 -182t182 -74zM247 341q23 0 39.5 -16.5t16.5 -40.5q0 -23 -16.5 -39.5t-39.5 -16.5q-24 0 -40.5 16.5t-16.5 39.5q0 24 16.5 40.5t40.5 16.5zM436 323h360
q16 0 27 -11t11 -27t-11 -27t-27 -11h-360q-16 0 -27 11t-11 27t11 27t27 11zM247 569q23 0 39.5 -17t16.5 -40t-16.5 -40t-39.5 -17q-24 0 -40.5 17t-16.5 40t16.5 40t40.5 17zM436 550h360q16 0 27 -11t11 -27t-11 -27t-27 -11h-360q-16 0 -27 11t-11 27t11 27t27 11z
M247 796q23 0 39.5 -16.5t16.5 -39.5q0 -24 -16.5 -40.5t-39.5 -16.5q-24 0 -40.5 16.5t-16.5 40.5q0 23 16.5 39.5t40.5 16.5zM436 778h360q16 0 27 -11t11 -27t-11 -27t-27 -11h-360q-16 0 -27 11t-11 27t11 27t27 11z" />
</svg>
