<?xml version="1.0" standalone="no"?>
<!DOCTYPE svg PUBLIC "-//W3C//DTD SVG 1.1//EN" "http://www.w3.org/Graphics/SVG/1.1/DTD/svg11.dtd" >
<svg xmlns="http://www.w3.org/2000/svg" xmlns:xlink="http://www.w3.org/1999/xlink" version="1.1" viewBox="-11 0 1045 1024">
   <path fill="currentColor"
d="M19 185q-19 -19 -18 -44q-1 -24 18 -45q17 -18 44 -18h554q27 0 44 18q19 21 18 45q1 25 -18 44q-17 19 -44 19h-554q-27 0 -44 -19zM1005 141h-1q18 15 20 44q0 26 -19 45l-655 655q-10 10 -21 14q-13 5 -24 5q-3 0 -5 -1q-4 0 -12 -2q-6 -1 -12 -5l-6 -3q-4 -2 -5 -3
l-5 -5h1l-243 -242q-20 -20 -18 -45q0 -29 19 -45q17 -18 44 -18t44 18l199 198l609 -610q21 -19 46 -19q23 0 44 19zM19 416q-17 -16 -19 -44q2 -28 19 -45q20 -18 45 -18h344q25 0 45 18q17 17 19 45q-2 28 -19 44q-19 19 -45 19h-344q-26 0 -45 -19z" />
</svg>
