<?xml version="1.0" standalone="no"?>
<!DOCTYPE svg PUBLIC "-//W3C//DTD SVG 1.1//EN" "http://www.w3.org/Graphics/SVG/1.1/DTD/svg11.dtd" >
<svg xmlns="http://www.w3.org/2000/svg" xmlns:xlink="http://www.w3.org/1999/xlink" version="1.1" viewBox="-11 0 607 1024">
   <path fill="currentColor"
d="M554 416l-374 -374q-18 -18 -34 -24q-21 -8 -41 -8q-44 0 -74 30q-32 34 -31 76q-1 18 8 40q4 13 22 35l301 300l-301 300q-16 17 -22 33q-9 24 -8 41q-1 41 31 75q30 32 74 32q20 0 41 -8q16 -6 34 -24l374 -375q12 -9 24 -35q6 -12 8 -40q-2 -28 -8 -40
q-11 -22 -24 -34z" />
</svg>
