<?xml version="1.0" standalone="no"?>
<!DOCTYPE svg PUBLIC "-//W3C//DTD SVG 1.1//EN" "http://www.w3.org/Graphics/SVG/1.1/DTD/svg11.dtd" >
<svg xmlns="http://www.w3.org/2000/svg" xmlns:xlink="http://www.w3.org/1999/xlink" version="1.1" viewBox="-10 0 1044 1024">
   <path fill="currentColor"
d="M192 0h640q84 0 138 54t54 138v640q0 84 -54 138t-138 54h-640q-84 0 -138 -54t-54 -138v-640q0 -84 54 -138t138 -54zM352 352q-16 16 -16 48q0 33 17 56.5t31 23.5q2 4 5.5 10.5t16.5 23t26.5 29t35.5 23t44 10.5t43.5 -10t36 -24t26 -28t16.5 -24l6 -10q21 0 48 -80
q0 -14 -4 -26t-8 -17l-4 -5l-2.5 -17.5t-11.5 -38t-24 -48.5t-42 -38.5t-64 -17.5h-16q-48 0 -80 32q-28 0 -48 32t-26 64zM816 816h16q1 -4 1.5 -10.5t1 -24t-2 -31.5t-11 -28t-21.5 -18q-7 -7 -34 -15t-76 -18.5t-66 -14.5q-72 48 -112 48t-112 -48q-17 4 -66 14.5
t-76 18.5t-34 15q-21 7 -29 35t-5 53l2 24h16h608z" />
</svg>
