<?xml version="1.0" standalone="no"?>
<!DOCTYPE svg PUBLIC "-//W3C//DTD SVG 1.1//EN" "http://www.w3.org/Graphics/SVG/1.1/DTD/svg11.dtd" >
<svg xmlns="http://www.w3.org/2000/svg" xmlns:xlink="http://www.w3.org/1999/xlink" version="1.1" viewBox="-10 0 770 1024">
   <path fill="currentColor"
d="M692 133q58 59 58 141t-58 141l-101 101q-9 -48 -34 -87l75 -75q33 -33 33 -80t-33 -81q-34 -33 -81 -33t-80 33l-141 141q-14 16 -24 35q-19 43 -1 88q10 23 25 38q14 12 18 14q8 5 19 9.5t12 5.5l1 1q13 11 16 29q5 18 -3 33.5t-16 21.5l-1 1l-5 -1q-1 0 -3 -0.5
t-4 -0.5q-41 -9 -75 -36q-1 -1 -20 -17q-21 -23 -32 -43l-5 -10q-22 -43 -20 -88q0 -43 16 -78q16 -38 42 -62l141 -141q58 -59 140.5 -59t140.5 59zM539 564v1v1q0 43 -16 78q-15 35 -42 62l-141 141q-58 59 -140.5 59t-140.5 -59q-59 -59 -59 -141t59 -141l101 -101
q9 48 34 87l-75 75q-33 33 -33 80t33 81q33 33 80 33t81 -33l141 -141q14 -16 24 -35q19 -43 1 -88q-8 -18 -20 -32l-6 -7q-13 -10 -14 -11q-9 -6 -22 -11l-12 -6q-1 -1 -2 -1q-16 -16 -16 -37q-2 -29 19 -47h1l1 -1q48 8 87 38q7 5 20 18l1 1q12 12 22 27q34 51 34 110z
" />
</svg>
