<?xml version="1.0" standalone="no"?>
<!DOCTYPE svg PUBLIC "-//W3C//DTD SVG 1.1//EN" "http://www.w3.org/Graphics/SVG/1.1/DTD/svg11.dtd" >
<svg xmlns="http://www.w3.org/2000/svg" xmlns:xlink="http://www.w3.org/1999/xlink" version="1.1" viewBox="-10 0 760 1024">
   <path fill="currentColor"
d="M370 881q32 0 55 -22.5t23 -55.5v-726q0 -31 -23 -54t-55 -23q-33 0 -55.5 22.5t-22.5 54.5v726q0 33 22.5 55.5t55.5 22.5zM663 881q32 0 54.5 -22.5t22.5 -55.5v-544q0 -32 -22.5 -55t-54.5 -23t-55 23t-23 55v544q0 33 23 55.5t55 22.5zM77 881q33 0 55.5 -22.5
t22.5 -55.5v-337q0 -32 -22.5 -55t-55.5 -23q-32 0 -54.5 23t-22.5 55v337q0 33 22.5 55.5t54.5 22.5z" />
</svg>
