<?xml version="1.0" standalone="no"?>
<!DOCTYPE svg PUBLIC "-//W3C//DTD SVG 1.1//EN" "http://www.w3.org/Graphics/SVG/1.1/DTD/svg11.dtd" >
<svg xmlns="http://www.w3.org/2000/svg" xmlns:xlink="http://www.w3.org/1999/xlink" version="1.1" viewBox="-10 0 1044 1024">
   <path fill="currentColor"
d="M1024 768v-512q0 -108 -74 -182t-182 -74h-512q-108 0 -182 74t-74 182v512q0 108 74 182t182 74h512q108 0 182 -74t74 -182zM480 256h320q12 0 22 10t10 22v256q0 12 -10 22t-22 10t-22 -10t-10 -22v-224h-288q-12 0 -22 -10t-10 -22t10 -22t22 -10zM352 384h320
q12 0 22 10t10 22v256q0 12 -10 22t-22 10t-22 -10t-10 -22v-224h-288q-12 0 -22 -10t-10 -22t10 -22t22 -10zM256 512h256q24 0 44 20t20 44v128q0 24 -20 44t-44 20h-256q-24 0 -44 -20t-20 -44v-128q0 -24 20 -44t44 -20z" />
</svg>
