<?xml version="1.0" standalone="no"?>
<!DOCTYPE svg PUBLIC "-//W3C//DTD SVG 1.1//EN" "http://www.w3.org/Graphics/SVG/1.1/DTD/svg11.dtd" >
<svg xmlns="http://www.w3.org/2000/svg" xmlns:xlink="http://www.w3.org/1999/xlink" version="1.1" viewBox="-10 0 791 1024">
   <path fill="currentColor"
d="M484 489l267 267q8 6 16 22q4 11 4 26q0 29 -20 49q-21 21 -49 21q-17 0 -27 -5q-12 -4 -23 -15l-266 -267l-267 267q-11 11 -22 15q-10 5 -26 5q-31 0 -50 -21q-21 -19 -21 -49q0 -14 6 -26q6 -16 15 -22l266 -267l-266 -267q-10 -9 -15 -22q-6 -12 -6 -28q0 -29 21 -48
q20 -20 50 -20q15 0 26 4q12 6 22 16l267 267l266 -267q10 -10 23 -16q11 -4 27 -4q27 0 49 20q20 20 20 48q0 17 -4 28q-6 12 -16 22z" />
</svg>
