<?xml version="1.0" standalone="no"?>
<!DOCTYPE svg PUBLIC "-//W3C//DTD SVG 1.1//EN" "http://www.w3.org/Graphics/SVG/1.1/DTD/svg11.dtd" >
<svg xmlns="http://www.w3.org/2000/svg" xmlns:xlink="http://www.w3.org/1999/xlink" version="1.1" viewBox="-11 0 933 1024">
   <path fill="currentColor"
d="M739 543l-432 -431q82 -60 177 -60q13 0 20 1l1 -3q10 -31 41 -44t63 -1q32 11 46.5 41t3.5 61l-1 2q60 44 92 112q59 127 2 280q-1 3 -13 42zM864 887q20 0 34 -14t14 -34t-14 -34l-785 -785q-14 -14 -34 -14t-34 14t-14 34t14 34l785 785q16 14 34 14zM171 315l527 527
q-13 8 -28 8q-9 0 -18 -3l-618 -225q-12 -5 -19 -12q-16 -18 -15 -40q2 -23 19 -37h1q75 -65 129 -171q12 -23 22 -47zM385 952q-44 -16 -67.5 -55t-18.5 -84l241 88q-25 38 -68 52.5t-87 -1.5z" />
</svg>
