<?xml version="1.0" standalone="no"?>
<!DOCTYPE svg PUBLIC "-//W3C//DTD SVG 1.1//EN" "http://www.w3.org/Graphics/SVG/1.1/DTD/svg11.dtd" >
<svg xmlns="http://www.w3.org/2000/svg" xmlns:xlink="http://www.w3.org/1999/xlink" version="1.1" viewBox="-10 0 1044 1024">
   <path fill="currentColor"
d="M512 0q104 0 198.5 40.5t163.5 109.5t109.5 163.5t40.5 198.5t-40.5 198.5t-109.5 163.5t-163.5 109.5t-198.5 40.5t-198.5 -40.5t-163.5 -109.5t-109.5 -163.5t-40.5 -198.5t40.5 -198.5t109.5 -163.5t163.5 -109.5t198.5 -40.5zM722 675q16 0 28 -11.5t12 -28.5
q0 -76 -53.5 -129.5t-128.5 -53.5h-53v-122q0 -24 -23 -36t-43 5l-203 162q-15 13 -15 32t15 31l203 163q11 9 25 9q6 0 18 -4q23 -12 23 -37v-122h53q42 0 71.5 30t29.5 72q0 17 12 28.5t29 11.5z" />
</svg>
