<?xml version="1.0" standalone="no"?>
<!DOCTYPE svg PUBLIC "-//W3C//DTD SVG 1.1//EN" "http://www.w3.org/Graphics/SVG/1.1/DTD/svg11.dtd" >
<svg xmlns="http://www.w3.org/2000/svg" xmlns:xlink="http://www.w3.org/1999/xlink" version="1.1" viewBox="-10 0 1044 1024">
   <path fill="currentColor"
d="M512 0q104 0 198.5 40.5t163.5 109.5t109.5 163.5t40.5 198.5t-40.5 198.5t-109.5 163.5t-163.5 109.5t-198.5 40.5t-198.5 -40.5t-163.5 -109.5t-109.5 -163.5t-40.5 -198.5t40.5 -198.5t109.5 -163.5t163.5 -109.5t198.5 -40.5zM724 441v-13q29 -22 51 -53
q-25 11 -59 16q33 -20 45 -57q-33 18 -65 25q-31 -33 -76 -33q-43 0 -73 30t-30 73q0 8 2 24q-129 -6 -213 -108q-13 24 -13 52q0 54 45 86q-25 -2 -46 -12q0 37 23.5 65.5t59.5 36.5q-14 3 -28 3q-13 0 -19 -2q10 31 36.5 51t59.5 21q-55 44 -128 44q-16 0 -25 -1
q73 46 159 46q68 0 125.5 -26.5t93.5 -69.5t55.5 -94.5t19.5 -103.5z" />
</svg>
