<?xml version="1.0" standalone="no"?>
<!DOCTYPE svg PUBLIC "-//W3C//DTD SVG 1.1//EN" "http://www.w3.org/Graphics/SVG/1.1/DTD/svg11.dtd" >
<svg xmlns="http://www.w3.org/2000/svg" xmlns:xlink="http://www.w3.org/1999/xlink" version="1.1" viewBox="-10 0 1034 1024">
   <path fill="currentColor"
d="M527 452h53q75 0 129 54t54 129q0 17 -12.5 29t-29.5 12q-16 0 -28 -12.5t-12 -28.5q0 -42 -29.5 -72t-71.5 -30h-53v122q0 26 -23 37q-7 4 -17 4q-13 0 -26 -9l-202 -163q-16 -10 -16 -31q0 -20 16 -32l202 -162q19 -16 43 -6q23 11 23 38v121z" />
</svg>
