<?xml version="1.0" standalone="no"?>
<!DOCTYPE svg PUBLIC "-//W3C//DTD SVG 1.1//EN" "http://www.w3.org/Graphics/SVG/1.1/DTD/svg11.dtd" >
<svg xmlns="http://www.w3.org/2000/svg" xmlns:xlink="http://www.w3.org/1999/xlink" version="1.1" viewBox="-10 0 1052 1024">
   <path fill="currentColor"
d="M240 478q-9 0 -17 -7q-22 -15 -34 -48q-17 -41 -8 -67q6 -21 18 -23l4 -1l3 -25q3 -26 13 -56q27 -84 81 -89q19 -18 54 -27q24 -5 48 -5h3h2h2q1 0 1 1q63 2 97 33q60 54 70 137l3 31q2 0 5 1q5 1 9 6q14 16 9 49q-4 35 -24 64q-19 26 -37 26q-3 9 -10 26q-10 26 -30 57
q-52 82 -111 82q-34 0 -63 -26q-50 -46 -77 -113zM1020 580q-10 11 -28 13q-18 0 -30 -12l-58 -56l-52 55q-12 12 -29 12q-17 2 -30 -10q-12 -14 -12 -30q-2 -16 11 -30l52 -54l-58 -55q-11 -11 -13 -29q-1 -16 12 -29q11 -12 29 -14q17 2 29 12l58 56l51 -54q13 -13 30 -13
q18 0 30 11q10 10 12 29q0 18 -12 30l-51 54l57 55q14 14 14 29q0 18 -12 30zM738 703h1q25 13 34 36q16 40 6 84q-4 15 -4 19q-1 0 -1 2t-1 2l-3 3q-1 1 -2 1q-2 0 -2 1q-1 1 -4 1h-741q-3 0 -4 -1t-2 -1q-2 0 -2 -1l-3 -3l-1 -2l-1 -2q-1 -1 -4 -19q-4 -17 -3 -39
q0 -59 42 -81h1q12 -8 82 -27q80 -23 131 -33q32 36 73 55q29 14 61 14t63 -14q38 -18 72 -55q47 10 132 33q71 20 80 27z" />
</svg>
