<?xml version="1.0" standalone="no"?>
<!DOCTYPE svg PUBLIC "-//W3C//DTD SVG 1.1//EN" "http://www.w3.org/Graphics/SVG/1.1/DTD/svg11.dtd" >
<svg xmlns="http://www.w3.org/2000/svg" xmlns:xlink="http://www.w3.org/1999/xlink" version="1.1" viewBox="-10 0 1044 1024">
   <path fill="currentColor"
d="M512 0q104 0 198.5 40.5t163.5 109.5t109.5 163.5t40.5 198.5t-40.5 198.5t-109.5 163.5t-163.5 109.5t-198.5 40.5t-198.5 -40.5t-163.5 -109.5t-109.5 -163.5t-40.5 -198.5t40.5 -198.5t109.5 -163.5t163.5 -109.5t198.5 -40.5zM512 265q-34 0 -58 20q-24 3 -39.5 30
t-18.5 53l-3 25q-2 0 -5 1t-7.5 10t-2.5 24q3 23 15.5 40t23.5 17q1 4 4 10.5t12.5 22.5t19.5 28.5t26 23t33 10.5q26 0 50 -24t34 -48l11 -23q11 0 23.5 -17t15.5 -40q2 -15 -2 -24t-8 -10l-5 -1q0 -5 -1 -13.5t-7.5 -31t-18 -39t-35.5 -30.5t-57 -14zM282 721h460
q17 0 17 -44q0 -36 -26 -50q-1 0 -1 -1q-16 -9 -132 -38q-38 44 -88 44t-88 -44q-118 30 -132 38q0 1 -1 1q-26 14 -26 50q0 44 17 44z" />
</svg>
