<?xml version="1.0" standalone="no"?>
<!DOCTYPE svg PUBLIC "-//W3C//DTD SVG 1.1//EN" "http://www.w3.org/Graphics/SVG/1.1/DTD/svg11.dtd" >
<svg xmlns="http://www.w3.org/2000/svg" xmlns:xlink="http://www.w3.org/1999/xlink" version="1.1" viewBox="-10 0 1044 1024">
   <path fill="currentColor"
d="M783 387q22 22 22 52t-22 52l-219 219q-22 21 -52 21t-52 -21l-219 -219q-22 -22 -22 -52t22 -52q21 -21 51.5 -21t51.5 21l95 95v-409q0 -30 21.5 -51.5t51.5 -21.5t51.5 21.5t21.5 51.5v409l95 -95q21 -21 51.5 -21t51.5 21zM951 683q30 0 51.5 21t21.5 52v146
q0 50 -36 86t-86 36h-780q-50 0 -86 -36t-36 -86v-146q0 -31 21.5 -52t51.5 -21q31 0 52 21t21 52v97q0 11 7 18t18 7h683q10 -1 17 -7.5t7 -16.5v-98q0 -31 21 -52t52 -21z" />
</svg>
