<?xml version="1.0" standalone="no"?>
<!DOCTYPE svg PUBLIC "-//W3C//DTD SVG 1.1//EN" "http://www.w3.org/Graphics/SVG/1.1/DTD/svg11.dtd" >
<svg xmlns="http://www.w3.org/2000/svg" xmlns:xlink="http://www.w3.org/1999/xlink" version="1.1" viewBox="-11 0 786 1024">
   <path fill="currentColor"
d="M651 325q74 102 99 183q26 87 4 158q-22 72 -91 130q-66 56 -185 99q-1 1 -4 1q-4 0 -5 -1q-7 0 -9 -5q-4 -4 -4 -10q-2 -5 2 -10l4 -6q54 -99 62 -169q17 -138 -71 -283q-6 44 -20 77q-21 46 -62 96q-42 46 -48 106q-11 109 32 208q11 27 22 49l2 2q2 4 2 6v3q0 7 -5 12
t-12 5h-2q-1 0 -2 -1h-1h-2q-6 -2 -53 -27q-52 -26 -107 -67q-156 -111 -190 -237q-14 -61 -1 -116t56 -112q68 -91 112 -168q16 -27 20 -38l5 -13q2 -4 3 -5q4 -6 9 -7q4 0 12 2q4 2 5 3q4 5 4 11q4 63 15 107q10 42 21 67q46 -59 76 -125q50 -113 60 -195q4 -28 4 -33
q0 -4 1 -6q2 -5 7 -8q3 -2 10 -2q6 0 10 4l4 4l17 28q7 12 46 71q82 124 148 212z" />
</svg>
