<?xml version="1.0" standalone="no"?>
<!DOCTYPE svg PUBLIC "-//W3C//DTD SVG 1.1//EN" "http://www.w3.org/Graphics/SVG/1.1/DTD/svg11.dtd" >
<svg xmlns="http://www.w3.org/2000/svg" xmlns:xlink="http://www.w3.org/1999/xlink" version="1.1" viewBox="-10 0 903 1024">
   <path fill="currentColor"
d="M663 98q89 0 154.5 72.5t65.5 166.5q-3 82 -40.5 171t-92 161.5t-115 131.5t-112.5 92t-81 33q-29 -1 -82.5 -34t-114.5 -92.5t-116 -131t-91.5 -160.5t-36.5 -171q0 -94 65.5 -166.5t155.5 -72.5q28 0 54 7.5t47 20.5t39 27t32 31.5t23 29.5t17 24t8 13l8 -13
q8 -12 17 -24t23.5 -29.5t32 -31.5t38.5 -27t47.5 -20.5t54.5 -7.5z" />
</svg>
