<?xml version="1.0" standalone="no"?>
<!DOCTYPE svg PUBLIC "-//W3C//DTD SVG 1.1//EN" "http://www.w3.org/Graphics/SVG/1.1/DTD/svg11.dtd" >
<svg xmlns="http://www.w3.org/2000/svg" xmlns:xlink="http://www.w3.org/1999/xlink" version="1.1" viewBox="-10 0 1013 1024">
   <path fill="currentColor"
d="M746 348l-38 213q-10 57 20 80q17 13 46 13q42 0 71 -30q40 -42 40 -133q0 -160 -114 -274t-274 -114q-161 0 -275 114t-114 274q0 162 114 274q116 114 275 114q59 0 110 -15q48 -14 98 -47q4 -4 14 -8q5 -2 16 -2q14 0 26 6q12 7 19 18q12 18 9 40q-3 20 -23 35
q-63 43 -127 62q-66 19 -142 19q-204 0 -351 -145q-69 -68 -107.5 -159t-38.5 -192q0 -100 38.5 -191t107.5 -160t159.5 -107t191.5 -38t191.5 38t159.5 107t107 159.5t38 191.5q0 141 -93 205q-61 43 -136 43q-62 0 -106 -17q-47 -17 -73 -52q-35 29 -74 44q-42 16 -84 16
q-81 0 -138 -67q-56 -64 -56 -155q0 -117 69 -196q69 -77 170 -77q46 0 85 14q35 13 64 48q10 -18 21 -25q20 -13 41 -11l7 1q22 0 39 20q22 26 17 66zM466 609q51 0 88 -47q36 -44 36 -110q0 -43 -24 -72q-25 -28 -68 -28q-53 0 -90 45q-39 45 -39 107q0 46 27 76
q24 29 70 29z" />
</svg>
