<?xml version="1.0" standalone="no"?>
<!DOCTYPE svg PUBLIC "-//W3C//DTD SVG 1.1//EN" "http://www.w3.org/Graphics/SVG/1.1/DTD/svg11.dtd" >
<svg xmlns="http://www.w3.org/2000/svg" xmlns:xlink="http://www.w3.org/1999/xlink" version="1.1" viewBox="-10 0 1034 1024">
   <path fill="currentColor"
d="M570 131q27 10 27 40v682q0 30 -27 40q-26 10 -46 -10l-215 -229h-167q-17 0 -29.5 -12.5t-12.5 -29.5v-200q0 -17 12.5 -29.5t29.5 -12.5h167l215 -229q20 -20 46 -10zM871 512l84 84q12 12 12 29.5t-12 30.5q-13 12 -31 12q-16 0 -30 -12l-83 -84l-84 84q-12 12 -30 12
t-30 -12q-13 -13 -13 -30.5t13 -29.5l83 -84l-83 -84q-13 -12 -13 -29.5t13 -30.5q12 -13 29.5 -13t30.5 13l84 84l83 -84q13 -13 30.5 -13t30.5 13q12 13 12 30.5t-12 29.5z" />
</svg>
