<?xml version="1.0" standalone="no"?>
<!DOCTYPE svg PUBLIC "-//W3C//DTD SVG 1.1//EN" "http://www.w3.org/Graphics/SVG/1.1/DTD/svg11.dtd" >
<svg xmlns="http://www.w3.org/2000/svg" xmlns:xlink="http://www.w3.org/1999/xlink" version="1.1" viewBox="-11 0 1045 1024">
   <path fill="currentColor"
d="M192 0h640q80 0 136 56t56 136v640q0 80 -56 136t-136 56h-640q-80 0 -136.5 -56t-56.5 -136v-640q0 -80 56.5 -136t136.5 -56zM806 804q16 -16 16 -38.5t-16 -38.5l-146 -146l138 -138q6 -6 4 -12q0 -7 -7 -12q-73 -46 -181 1l-192 -151q22 -66 -10 -115q-3 -5 -11 -7
q-8 0 -13 5l-235 235q-4 4 -4 12q0 7 7 12q48 31 115 9l151 192q-48 110 -1 181q5 7 12 7q6 2 12 -4l138 -138l146 146q16 16 38.5 16t38.5 -16z" />
</svg>
