<?xml version="1.0" standalone="no"?>
<!DOCTYPE svg PUBLIC "-//W3C//DTD SVG 1.1//EN" "http://www.w3.org/Graphics/SVG/1.1/DTD/svg11.dtd" >
<svg xmlns="http://www.w3.org/2000/svg" xmlns:xlink="http://www.w3.org/1999/xlink" version="1.1" viewBox="-11 0 1045 1024">
   <path fill="currentColor"
d="M192 0h640q80 0 136 56t56 136v640q0 80 -56 136t-136 56h-640q-80 0 -136.5 -56t-56.5 -136v-640q0 -80 56.5 -136t136.5 -56zM512 812q26 -1 76.5 -38t103 -93t91 -133.5t38.5 -148.5q0 -66 -46 -117t-109 -51q-89 0 -154 112l-5 -8q-5 -8 -9.5 -15t-13 -18t-17 -20
t-21 -19t-25.5 -16.5t-29.5 -11t-33.5 -4.5q-63 0 -109.5 51t-46.5 117q0 71 39 148.5t91 133.5t103 93t77 38z" />
</svg>
