<?xml version="1.0" standalone="no"?>
<!DOCTYPE svg PUBLIC "-//W3C//DTD SVG 1.1//EN" "http://www.w3.org/Graphics/SVG/1.1/DTD/svg11.dtd" >
<svg xmlns="http://www.w3.org/2000/svg" xmlns:xlink="http://www.w3.org/1999/xlink" version="1.1" viewBox="-10 0 894 1024">
   <path fill="currentColor"
d="M380 395v-303q0 -16 -11 -27q-13 -11 -28 -11h-303q-16 0 -27 11t-11 27v303q0 16 11 27q11 12 27 12h303q16 0 28 -12q11 -11 11 -27zM874 395v-303q0 -16 -11 -27q-13 -11 -28 -11h-303q-16 0 -27 11t-11 27v303q0 16 11 27q11 12 27 12h303q16 0 28 -12q11 -11 11 -27
zM380 889v-303q0 -16 -11 -27q-13 -11 -28 -11h-303q-16 0 -27 11t-11 27v303q0 16 11 27q12 12 27 12h303q14 0 28 -12q11 -11 11 -27zM874 889v-303q0 -16 -11 -27q-13 -11 -28 -11h-303q-16 0 -27 11t-11 27v303q0 16 11 27q12 12 27 12h303q14 0 28 -12q11 -11 11 -27z
" />
</svg>
