<?xml version="1.0" standalone="no"?>
<!DOCTYPE svg PUBLIC "-//W3C//DTD SVG 1.1//EN" "http://www.w3.org/Graphics/SVG/1.1/DTD/svg11.dtd" >
<svg xmlns="http://www.w3.org/2000/svg" xmlns:xlink="http://www.w3.org/1999/xlink" version="1.1" viewBox="-10 0 980 1024">
   <path fill="currentColor"
d="M667 49q37 16 82 44q37 26 70 58q64 64 103 153q38 90 38 186q0 97 -38 187q-38 87 -103 152q-66 67 -152 103q-92 38 -187 38q-94 0 -186 -38q-88 -36 -153 -103q-66 -65 -103 -152q-38 -90 -38 -187q0 -99 38 -186q37 -89 103 -153q65 -65 153 -103q92 -38 186 -38
q50 0 96 10q53 12 91 29zM486 144l-13 -67q-134 1 -243 83q-109 83 -146 208l36 10l128 60l-17 55l24 74l58 47l28 195l30 43l98 -191l82 -71l-13 -80l-109 -97l-124 14l-133 -91l66 -7l39 -78l167 -90zM857 592l23 1q5 -16 11 -52q3 -17 3 -51q0 -90 -38 -174
q-38 -80 -107 -140l-55 -10l-107 -6l-14 37l45 44l41 49l-52 71l58 55l116 50l52 87z" />
</svg>
