<?xml version="1.0" standalone="no"?>
<!DOCTYPE svg PUBLIC "-//W3C//DTD SVG 1.1//EN" "http://www.w3.org/Graphics/SVG/1.1/DTD/svg11.dtd" >
<svg xmlns="http://www.w3.org/2000/svg" xmlns:xlink="http://www.w3.org/1999/xlink" version="1.1" viewBox="-10 0 955 1024">
   <path fill="currentColor"
d="M696 591h137q28 0 50 20q20 22 20 50q0 29 -20 49q-21 21 -50 21h-151l-17 166q-1 26 -22 45q-19 18 -47 18h-2h-2h-2h-1q-28 -1 -47 -26q-20 -23 -16 -51l15 -152h-195l-17 166q-4 28 -23 45q-18 18 -47 18h-1h-2h-2h-2q-28 -1 -47 -26q-18 -20 -16 -51l16 -152h-135
q-30 0 -49 -21q-21 -19 -21 -49q0 -29 21 -50q20 -20 49 -20h149l20 -197h-137q-30 0 -49 -21q-21 -19 -21 -49q0 -29 21 -50q20 -20 49 -20h151l16 -166q4 -30 26 -48q21 -17 51 -15q28 1 48 25q17 21 15 52l-15 152h195l17 -166q1 -27 26 -48q21 -16 51 -15q27 1 47 25
q19 24 15 52l-15 152h135q28 0 50 20q20 22 20 50q0 29 -20 49q-21 21 -50 21h-149zM360 591h195l20 -197h-196z" />
</svg>
