<?xml version="1.0" standalone="no"?>
<!DOCTYPE svg PUBLIC "-//W3C//DTD SVG 1.1//EN" "http://www.w3.org/Graphics/SVG/1.1/DTD/svg11.dtd" >
<svg xmlns="http://www.w3.org/2000/svg" xmlns:xlink="http://www.w3.org/1999/xlink" version="1.1" viewBox="-10 0 1044 1024">
   <path fill="currentColor"
d="M426 182l-394 455q-19 21 -24 39q-8 24 -8 47q0 50 34 86q32 34 80 34q26 0 43 -8q21 -11 37 -29l315 -357l323 350q17 19 37 28q17 8 43 8q47 -1 80 -36q32 -34 32 -87q0 -23 -8 -47q-8 -18 -26 -38l-404 -447q-14 -15 -37 -26q-23 -9 -43 -9q-21 0 -43 10
q-21 10 -37 27z" />
</svg>
