<?xml version="1.0" standalone="no"?>
<!DOCTYPE svg PUBLIC "-//W3C//DTD SVG 1.1//EN" "http://www.w3.org/Graphics/SVG/1.1/DTD/svg11.dtd" >
<svg xmlns="http://www.w3.org/2000/svg" xmlns:xlink="http://www.w3.org/1999/xlink" version="1.1" viewBox="-10 0 1045 1024">
   <path fill="currentColor"
d="M750 171h145q53 0 91 38q39 41 38 92l1 455q-2 55 -39 91q-39 39 -92 39h-764q-53 0 -92 -39q-36 -35 -38 -91l1 -455q-1 -52 37 -92q38 -38 91 -38h146q1 -6 6 -12q3 -3 7 -11q2 -6 6 -10q5 -7 5 -8q17 -23 31 -29q18 -6 39 -6h287q20 0 38 6q15 6 32 29q2 4 5 8l6 10
q4 8 7 11zM512 770q105 0 183 -76q73 -73 75 -181q-2 -109 -75 -182q-78 -76 -183 -76q-107 0 -181 76q-77 79 -76 182q-1 102 76 181q74 76 181 76zM856 405q25 0 40 -17q17 -19 16 -40q1 -24 -16 -41q-16 -16 -40 -16q-23 0 -41 16q-15 14 -17 41q2 25 17 40q17 17 41 17z
M560 465h78q19 0 34 13q12 12 14 34q-2 23 -14 34q-16 14 -34 14h-78l-1 73q2 18 -13 33q-12 14 -34 14q-20 0 -34 -14q-12 -11 -14 -33l1 -73h-79q-19 0 -33 -14q-15 -15 -14 -34q-1 -17 14 -34q13 -13 33 -13h79l-1 -73q2 -22 14 -34q15 -13 34 -13q21 0 34 13
q14 16 13 34z" />
</svg>
