<?xml version="1.0" standalone="no"?>
<!DOCTYPE svg PUBLIC "-//W3C//DTD SVG 1.1//EN" "http://www.w3.org/Graphics/SVG/1.1/DTD/svg11.dtd" >
<svg xmlns="http://www.w3.org/2000/svg" xmlns:xlink="http://www.w3.org/1999/xlink" version="1.1" viewBox="-10 0 1045 1024">
   <path fill="currentColor"
d="M130 134h765q54 0 92 38t38 91v456q0 53 -38 91.5t-92 38.5h-765q-54 0 -92 -38.5t-38 -91.5v-456q0 -53 38 -91t92 -38zM895 229h-765q-14 0 -24.5 10t-10.5 24v352l153 -153l176 176l301 -302l205 204v-277q0 -14 -10.5 -24t-24.5 -10zM412 439q-28 0 -48 -19.5
t-20 -47.5t20 -48t48 -20t47.5 20t19.5 48t-19.5 47.5t-47.5 19.5z" />
</svg>
