<?xml version="1.0" standalone="no"?>
<!DOCTYPE svg PUBLIC "-//W3C//DTD SVG 1.1//EN" "http://www.w3.org/Graphics/SVG/1.1/DTD/svg11.dtd" >
<svg xmlns="http://www.w3.org/2000/svg" xmlns:xlink="http://www.w3.org/1999/xlink" version="1.1" viewBox="-10 0 804 1024">
   <path fill="currentColor"
d="M758 357q26 67 26 141t-26 141q-16 40 -41 77q-45 66 -112.5 110.5t-147.5 58.5q-4 0 -7.5 0.5t-8 1.5t-7.5 1q-28 2 -42 2t-42 -2q-1 0 -9.5 -1.5t-13.5 -1.5q-80 -14 -147.5 -58.5t-112.5 -110.5q-25 -37 -41 -77q-26 -67 -26 -141t26 -141q16 -40 41 -77
q45 -66 112.5 -110.5t147.5 -58.5q4 0 7.5 -0.5t8 -1.5t7.5 -1q28 -2 42 -2t42 2q1 0 9.5 1.5t13.5 1.5q80 14 147.5 58.5t112.5 110.5q25 37 41 77zM381 194q-41 73 -62 169q32 4 73 4t73 -4q-21 -96 -62 -169q-3 -1 -11 -1t-11 1zM273 217q-78 34 -128 102q50 19 89 29
q14 -68 39 -131zM639 319q-50 -68 -128 -102q25 63 39 131q39 -10 89 -29zM87 498q0 54 18 102q57 -25 116 -38q-4 -42 -4 -64t4 -64q-59 -13 -116 -38q-18 48 -18 102zM563 562q59 13 116 38q18 -48 18 -102t-18 -102q-57 25 -116 38q4 42 4 64t-4 64zM479 498
q0 -32 -2 -48q-37 4 -85 4t-85 -4q-2 16 -2 48t2 48q37 -4 85 -4t85 4q2 -16 2 -48zM403 802q41 -73 62 -169q-32 -4 -73 -4t-73 4q21 96 62 169q3 1 11 1t11 -1zM145 677q50 68 128 102q-25 -63 -39 -131q-39 10 -89 29zM511 779q78 -34 128 -102q-50 -19 -89 -29
q-14 68 -39 131z" />
</svg>
