<?xml version="1.0" standalone="no"?>
<!DOCTYPE svg PUBLIC "-//W3C//DTD SVG 1.1//EN" "http://www.w3.org/Graphics/SVG/1.1/DTD/svg11.dtd" >
<svg xmlns="http://www.w3.org/2000/svg" xmlns:xlink="http://www.w3.org/1999/xlink" version="1.1" viewBox="-10 0 1040 1024">
   <path fill="currentColor"
d="M914 482q106 106 106 256q0 41 -28 69q-30 30 -70 30q-42 0 -70 -30q-29 -31 -29 -69q0 -69 -48 -117t-117 -48h-131v198q0 20 -10 34q-11 16 -27 25q-1 0 -3 1t-3 1l-8 3q-10 2 -15 2q-7 0 -21 -4q-8 -2 -19 -10l-394 -296q-12 -6 -19 -23q-8 -14 -8 -29q0 -16 8 -30
q6 -13 19 -23l394 -296q16 -11 34 -13q21 -2 35 7q16 7 27 24q10 16 10 34v198h131q150 0 256 106z" />
</svg>
