<?xml version="1.0" standalone="no"?>
<!DOCTYPE svg PUBLIC "-//W3C//DTD SVG 1.1//EN" "http://www.w3.org/Graphics/SVG/1.1/DTD/svg11.dtd" >
<svg xmlns="http://www.w3.org/2000/svg" xmlns:xlink="http://www.w3.org/1999/xlink" version="1.1" viewBox="-10 0 643 1024">
   <path fill="currentColor"
d="M172 70l45 -22q12 -6 25 -1.5t19 17.5l79 164q6 13 1.5 26t-17.5 18l-45 22zM66 617q-73 -152 -65 -292.5t96 -218.5l15 -8l108 225l-45 21q-13 6 -17.5 19t1.5 25l72 150l71 150q6 12 19 16.5t26 -1.5l45 -21l107 224l-15 8q-116 19 -230.5 -62.5t-187.5 -234.5z
M451 653l45 -21q13 -6 26 -1.5t19 16.5l79 165q5 12 0.5 25t-16.5 19l-45 22z" />
</svg>
