<?xml version="1.0" standalone="no"?>
<!DOCTYPE svg PUBLIC "-//W3C//DTD SVG 1.1//EN" "http://www.w3.org/Graphics/SVG/1.1/DTD/svg11.dtd" >
<svg xmlns="http://www.w3.org/2000/svg" xmlns:xlink="http://www.w3.org/1999/xlink" version="1.1" viewBox="-10 0 907 1024">
   <path fill="currentColor"
d="M887 17q0 6 -2 16t-17.5 38t-43.5 52q-18 16 -67.5 51.5t-69.5 59.5q28 2 70.5 -9.5t77.5 -30.5q-12 35 -30 60q-32 43 -69 65t-100 42q-20 6 -38 19t-26 22l-8 10q66 3 139 -24q-12 55 -87.5 96t-138.5 49q0 1 -1 1q-119 20 -238 211q-24 39 -78 121q-24 38 -42.5 60.5
t-26.5 19.5q-6 -2 -7 -14.5t4.5 -36t16.5 -53.5q59 -154 180 -333q280 -418 602 -492zM42 609q17 0 29.5 -12.5t12.5 -30.5v-337h211q18 0 30.5 -12.5t12.5 -30.5q0 -17 -12.5 -29.5t-30.5 -12.5h-211q-35 0 -59.5 25t-24.5 60v337q0 18 12.5 30.5t29.5 12.5zM422 862h338
q35 0 59.5 -24.5t24.5 -59.5v-169q0 -18 -12.5 -30.5t-29.5 -12.5t-29.5 12.5t-12.5 30.5v169h-338q-17 0 -29.5 12t-12.5 30q0 17 12.5 29.5t29.5 12.5z" />
</svg>
