<?xml version="1.0" standalone="no"?>
<!DOCTYPE svg PUBLIC "-//W3C//DTD SVG 1.1//EN" "http://www.w3.org/Graphics/SVG/1.1/DTD/svg11.dtd" >
<svg xmlns="http://www.w3.org/2000/svg" xmlns:xlink="http://www.w3.org/1999/xlink" version="1.1" viewBox="-10 0 1018 1024">
   <path fill="currentColor"
d="M998 181q-17 27 -46 57q-23 24 -56 49v6v7q0 5 1 7v7q0 103 -39 206.5t-111 185.5q-77 88 -187 139t-246 51q-88 0 -166 -24q-80 -24 -148 -68q4 1 12 1q16 2 24 2h13q70 0 137 -23q62 -22 117 -64q-64 -1 -119 -42q-54 -40 -72 -101q15 3 19 3h10q3 1 9 1q9 0 14 -1
q10 0 28 -4q2 0 6 -1t6 -1q-71 -14 -117 -71q-47 -57 -47 -130v-1v-1v-1q19 12 44 18q26 8 49 8q-44 -30 -66 -73q-25 -44 -25 -98q0 -30 7 -54q4 -17 20 -49q78 96 186 150q111 58 236 64q-3 -21 -3 -23q-2 -14 -2 -23q0 -85 60 -145t145 -60q44 0 83 17q39 19 67 48
q32 -7 68 -20q30 -11 62 -30q-12 36 -35 65q-26 30 -55 48q30 -5 60 -12q23 -6 57 -20z" />
</svg>
