<?xml version="1.0" standalone="no"?>
<!DOCTYPE svg PUBLIC "-//W3C//DTD SVG 1.1//EN" "http://www.w3.org/Graphics/SVG/1.1/DTD/svg11.dtd" >
<svg xmlns="http://www.w3.org/2000/svg" xmlns:xlink="http://www.w3.org/1999/xlink" version="1.1" viewBox="-10 0 942 1024">
   <path fill="currentColor"
d="M920 365q4 23 -3 42q-8 20 -27 32l-204 126l84 241l3 7l3 7q1 3 1 8t1 8q-2 30 -19 47q-21 19 -48 19q-14 0 -20 -3q-18 -9 -19 -10l-212 -160l-210 160q-20 13 -39 13q-21 0 -40 -12q-19 -15 -23 -34q-7 -24 1 -42l86 -249l-203 -126q-16 -9 -27 -32q-5 -12 -5 -21
q0 -7 2 -21q9 -24 24 -35q20 -13 40 -13h252l80 -258q4 -17 24 -33q16 -13 38 -13h1q21 0 39 13t23 33l80 258h252q21 0 40 13q10 8 25 35z" />
</svg>
