<?xml version="1.0" standalone="no"?>
<!DOCTYPE svg PUBLIC "-//W3C//DTD SVG 1.1//EN" "http://www.w3.org/Graphics/SVG/1.1/DTD/svg11.dtd" >
<svg xmlns="http://www.w3.org/2000/svg" xmlns:xlink="http://www.w3.org/1999/xlink" version="1.1" viewBox="-10 0 944 1024">
   <path fill="currentColor"
d="M861 126h-798q-27 0 -44 -18q-19 -19 -19 -44q0 -26 19 -45q18 -18 44 -18h798q25 0 45 18q18 20 18 45q0 24 -18 44q-18 18 -45 18zM63 214h798q25 0 45 18q18 20 18 45q0 26 -18 44q-19 19 -45 19h-798q-27 0 -44 -19q-19 -17 -19 -44q0 -26 19 -45q18 -18 44 -18z
M180 540l-3 4q-4 4 -6 7l-4 4h-104q-27 0 -44 -19q-19 -19 -19 -46q0 -26 19 -45q18 -18 44 -18h228zM506 446l178 178q19 18 19 44q0 27 -19 45q-8 8 -20 13q-10 5 -24 5t-23 -5q-13 -5 -21 -13l-51 -71v266q0 26 -28 50q-29 24 -55 24q-28 0 -57 -24q-31 -26 -31 -50v-266
l-46 71q-8 8 -20 13q-10 5 -24 5t-23 -5q-13 -5 -21 -13q-19 -18 -19 -45q0 -26 19 -44l178 -178q6 -8 21 -14q12 -5 23 -5t24 5q14 6 20 14zM633 427h228q25 0 45 18q18 20 18 45q0 26 -18 46q-19 19 -45 19h-104l-3 -4l-7 -7l-3 -4z" />
</svg>
