<?xml version="1.0" standalone="no"?>
<!DOCTYPE svg PUBLIC "-//W3C//DTD SVG 1.1//EN" "http://www.w3.org/Graphics/SVG/1.1/DTD/svg11.dtd" >
<svg xmlns="http://www.w3.org/2000/svg" xmlns:xlink="http://www.w3.org/1999/xlink" version="1.1" viewBox="-10 0 960 1024">
   <path fill="currentColor"
d="M96 704h288q15 0 31.5 13t16.5 35t-16.5 35t-31.5 13h-320q-23 0 -35.5 -19t-12.5 -45v-464q0 -26 12.5 -45t35.5 -19h320q15 0 31.5 13t16.5 35t-16.5 35t-31.5 13h-288v400zM720 272l208 192q12 12 12 32t-12 32l-208 224q-7 7 -15 11t-13 5h-4q-7 0 -15 -4t-13 -8
l-4 -4q-12 -12 -12 -32t12 -32l128 -128h-528q-12 0 -30 -18t-18 -30q0 -22 17.5 -43t30.5 -21h528l-128 -128q-24 -24 0 -48q4 -8 8.5 -12t8 -6t10 0t10 3.5t13 7t14.5 7.5z" />
</svg>
