<?xml version="1.0" standalone="no"?>
<!DOCTYPE svg PUBLIC "-//W3C//DTD SVG 1.1//EN" "http://www.w3.org/Graphics/SVG/1.1/DTD/svg11.dtd" >
<svg xmlns="http://www.w3.org/2000/svg" xmlns:xlink="http://www.w3.org/1999/xlink" version="1.1" viewBox="-10 0 788 1024">
   <path fill="currentColor"
d="M384 128q159 0 271.5 112.5t112.5 271.5t-112.5 271.5t-271.5 112.5t-271.5 -112.5t-112.5 -271.5t112.5 -271.5t271.5 -112.5zM365 741l171 -256q9 -15 1 -29q-8 -15 -25 -15h-85l54 -117q6 -14 -2 -27t-24 -13h-100q-22 0 -27 22l-57 213q-3 14 5 25q9 11 23 11h57
l-42 163q-7 22 16 33q4 3 11 3q16 0 24 -13z" />
</svg>
