<?xml version="1.0" standalone="no"?>
<!DOCTYPE svg PUBLIC "-//W3C//DTD SVG 1.1//EN" "http://www.w3.org/Graphics/SVG/1.1/DTD/svg11.dtd" >
<svg xmlns="http://www.w3.org/2000/svg" xmlns:xlink="http://www.w3.org/1999/xlink" version="1.1" viewBox="-10 0 973 1024">
   <path fill="currentColor"
d="M424 156h423q44 0 75 31t31 74v390q0 35 -20.5 62.5t-53.5 37.5q-11 48 -49.5 79.5t-88.5 31.5q-49 0 -87 -30t-49 -76h-257q-11 46 -49 76t-87 30q-50 0 -88.5 -31.5t-49.5 -79.5q-33 -10 -53.5 -37.5t-20.5 -62.5v-107q0 -38 29 -58l10 -33q68 -226 173 -226h146
q6 -25 11.5 -38t19 -23t35.5 -10zM318 297h-106q-23 0 -49.5 44.5t-41.5 88.5l-15 44h212v-177zM212 792q29 0 49.5 -21t20.5 -50t-20.5 -50t-49.5 -21t-50 21t-21 50t21 50t50 21zM741 792q29 0 50 -21t21 -50t-21 -50t-50 -21t-49.5 21t-20.5 50t20.5 50t49.5 21z" />
</svg>
