<?xml version="1.0" standalone="no"?>
<!DOCTYPE svg PUBLIC "-//W3C//DTD SVG 1.1//EN" "http://www.w3.org/Graphics/SVG/1.1/DTD/svg11.dtd" >
<svg xmlns="http://www.w3.org/2000/svg" xmlns:xlink="http://www.w3.org/1999/xlink" version="1.1" viewBox="-10 0 1044 1024">
   <path fill="currentColor"
d="M931 398h50q18 0 30.5 12.5t12.5 30.5q0 17 -12.5 30t-30.5 13h-16q2 18 2 28q0 82 -58.5 140.5t-140.5 58.5t-140.5 -58.5t-58.5 -140.5q0 -22 4 -38l-1 1q-26 -19 -60 -19t-60 19l-1 -1q4 16 4 38q0 82 -58.5 140.5t-140.5 58.5t-140.5 -58.5t-58.5 -140.5q0 -10 2 -28
h-16q-18 0 -30.5 -13t-12.5 -30q0 -18 12.5 -30.5t30.5 -12.5h50q28 -39 71 -62t92 -23q101 0 161 83q44 -26 95 -26t95 26q60 -83 161 -83q49 0 92 23t71 62zM256 626q47 0 80.5 -33.5t33.5 -80.5t-33.5 -80.5t-80.5 -33.5t-80.5 33.5t-33.5 80.5t33.5 80.5t80.5 33.5z
M768 626q47 0 80.5 -33.5t33.5 -80.5t-33.5 -80.5t-80.5 -33.5t-80.5 33.5t-33.5 80.5t33.5 80.5t80.5 33.5z" />
</svg>
