<?xml version="1.0" standalone="no"?>
<!DOCTYPE svg PUBLIC "-//W3C//DTD SVG 1.1//EN" "http://www.w3.org/Graphics/SVG/1.1/DTD/svg11.dtd" >
<svg xmlns="http://www.w3.org/2000/svg" xmlns:xlink="http://www.w3.org/1999/xlink" version="1.1" viewBox="-11 0 967 1024">
   <path fill="currentColor"
d="M654 475l-12 31q-12 28 -36 68q-64 100 -134 100q-42 0 -76 -31q-61 -56 -93 -137l-13 -31q-10 0 -21 -9q-26 -18 -42 -57q-19 -48 -10 -82q7 -25 22 -27l5 -1l4 -31q3 -33 16 -68q31 -98 98 -107q26 -23 65 -32q33 -6 58 -6h3h3h2h2q75 3 116 41q75 71 85 166l4 37
q2 0 6 1q6 2 11 7q16 18 11 59q-6 47 -30 77q-24 32 -44 32zM891 746l1 1q31 17 41 43q20 51 7 101l-5 23q-1 5 -6 8q-1 1 -4.5 9t-5.5 8h-894q-2 0 -5.5 -8t-4.5 -9q-5 -3 -6 -8l-5 -23q-5 -23 -4 -47q2 -72 52 -97l1 -1q19 -12 98 -33q127 -32 159 -39q40 46 87 66
q37 17 75 17t75 -17q47 -20 87 -66q32 7 159 39q79 21 98 33z" />
</svg>
