<?xml version="1.0" standalone="no"?>
<!DOCTYPE svg PUBLIC "-//W3C//DTD SVG 1.1//EN" "http://www.w3.org/Graphics/SVG/1.1/DTD/svg11.dtd" >
<svg xmlns="http://www.w3.org/2000/svg" xmlns:xlink="http://www.w3.org/1999/xlink" version="1.1" viewBox="-10 0 851 1024">
   <path fill="currentColor"
d="M415 960q-172 0 -293.5 -121.5t-121.5 -293.5t121.5 -293.5t293.5 -121.5q119 0 217 61l53 -75q7 -10 20 -10h3q14 2 19 15l85 237q4 10 -3 22q-8 10 -20 10l-251 -1q-14 0 -21 -13q-6 -12 2 -24l58 -83q-77 -44 -162 -44q-132 0 -225.5 93.5t-93.5 226.5
q0 132 93.5 225.5t225.5 93.5q133 0 226.5 -93.5t93.5 -225.5q0 -20 14 -34t34 -14t34 14t14 34q0 172 -122 293.5t-294 121.5z" />
</svg>
