<?xml version="1.0" standalone="no"?>
<!DOCTYPE svg PUBLIC "-//W3C//DTD SVG 1.1//EN" "http://www.w3.org/Graphics/SVG/1.1/DTD/svg11.dtd" >
<svg xmlns="http://www.w3.org/2000/svg" xmlns:xlink="http://www.w3.org/1999/xlink" version="1.1" viewBox="-10 0 1047 1024">
   <path fill="currentColor"
d="M480 478q-8 0 -18 -7q-22 -15 -34 -49q-17 -41 -8 -68q6 -21 18 -23l4 -1l3 -25q3 -28 13 -57q26 -84 82 -90q21 -17 54 -26q24 -5 49 -5h2h2h2h2q62 1 98 34q62 58 70 138l3 31q2 0 5 1q5 1 9 6q14 16 10 50q-6 39 -25 64q-19 27 -37 27q-3 9 -10 26q-10 26 -30 57
q-53 83 -112 83q-34 0 -63 -26q-51 -47 -78 -114zM326 465q0 17 -12 29t-30 12h-80v75q0 17 -12 29q-13 13 -29 13q-18 0 -29 -13q-13 -11 -13 -29v-75h-80q-17 0 -29 -12q-12 -10 -12 -29q0 -18 12 -30q13 -11 29 -11h80v-75q0 -17 13 -30q12 -12 29 -12q15 0 29 12
q12 14 12 30v75h80q17 0 30 11q12 14 12 30zM983 705q25 13 34 36q16 40 6 85q-4 15 -4 18l-2 4l-3 3q-3 3 -9 3h-746q-5 0 -8 -3l-3 -3q-2 -2 -3 -4q0 -3 -4 -18q-5 -17 -3 -40q0 -59 43 -81v-1h1q12 -8 82 -27q40 -11 132 -34q34 39 74 56q32 14 62 14q29 0 63 -14
q40 -17 73 -56q92 23 132 34q70 19 82 27h1v1z" />
</svg>
