<?xml version="1.0" standalone="no"?>
<!DOCTYPE svg PUBLIC "-//W3C//DTD SVG 1.1//EN" "http://www.w3.org/Graphics/SVG/1.1/DTD/svg11.dtd" >
<svg xmlns="http://www.w3.org/2000/svg" xmlns:xlink="http://www.w3.org/1999/xlink" version="1.1" viewBox="-10 0 1044 1024">
   <path fill="currentColor"
d="M512 0q104 0 198.5 40.5t163.5 109.5t109.5 163.5t40.5 198.5t-40.5 198.5t-109.5 163.5t-163.5 109.5t-198.5 40.5t-198.5 -40.5t-163.5 -109.5t-109.5 -163.5t-40.5 -198.5t40.5 -198.5t109.5 -163.5t163.5 -109.5t198.5 -40.5zM313 389q20 0 33.5 -14t13.5 -34
q0 -19 -14 -33t-33 -14q-20 0 -34 14t-14 33q0 20 14 34t34 14zM474 379h266q15 0 26 -11t11 -27t-11 -27t-26 -11h-266q-16 0 -27 11t-11 27t11 27t27 11zM313 559q19 0 33 -13.5t14 -33.5t-14 -33.5t-33 -13.5q-20 0 -34 14t-14 33t14 33t34 14zM436 512q0 16 11 27t27 11
h266q15 0 26 -11t11 -27t-11 -27t-26 -11h-266q-16 0 -27 11t-11 27zM360 683q0 -20 -13.5 -34t-33.5 -14t-34 14t-14 34q0 19 14 33t34 14q19 0 33 -14t14 -33zM740 645h-266q-16 0 -27 11t-11 27t11 27t27 11h266q15 0 26 -11t11 -27t-11 -27t-26 -11z" />
</svg>
