<?xml version="1.0" standalone="no"?>
<!DOCTYPE svg PUBLIC "-//W3C//DTD SVG 1.1//EN" "http://www.w3.org/Graphics/SVG/1.1/DTD/svg11.dtd" >
<svg xmlns="http://www.w3.org/2000/svg" xmlns:xlink="http://www.w3.org/1999/xlink" version="1.1" viewBox="-10 0 1044 1024">
   <path fill="currentColor"
d="M512 -20q104 0 198.5 40.5t163.5 109.5t109.5 163.5t40.5 198.5t-40.5 198.5t-109.5 163.5t-163.5 109.5t-198.5 40.5t-198.5 -40.5t-163.5 -109.5t-109.5 -163.5t-40.5 -198.5t40.5 -198.5t109.5 -163.5t163.5 -109.5t198.5 -40.5zM512 94q-165 0 -281.5 116.5
t-116.5 281.5t116.5 281.5t281.5 116.5t281.5 -116.5t116.5 -281.5t-116.5 -281.5t-281.5 -116.5zM512 410l80 -80q17 -16 40.5 -16t40.5 16t17 40t-17 40l-81 81l81 80q17 17 17 41t-17 40t-40.5 16t-40.5 -16l-80 -81l-81 81q-17 16 -40 16t-40 -16t-17 -40t17 -41l80 -80
l-80 -81q-17 -16 -17 -40t17 -40t40 -16t40 16z" />
</svg>
