<?xml version="1.0" standalone="no"?>
<!DOCTYPE svg PUBLIC "-//W3C//DTD SVG 1.1//EN" "http://www.w3.org/Graphics/SVG/1.1/DTD/svg11.dtd" >
<svg xmlns="http://www.w3.org/2000/svg" xmlns:xlink="http://www.w3.org/1999/xlink" version="1.1" viewBox="-11 0 1045 1024">
   <path fill="currentColor"
d="M192 0h640q80 0 136 56t56 136v640q0 80 -56 136t-136 56h-640q-80 0 -136.5 -56t-56.5 -136v-640q0 -80 56.5 -136t136.5 -56zM832 768q29 0 46.5 -17.5t17.5 -46.5q0 -108 -74.5 -182t-181.5 -74h-128v-142q0 -28 -27 -42q-27 -13 -49 4l-290 206q-18 15 -18 38t18 38
l290 206q12 9 28 9q14 0 21 -5q27 -14 27 -42v-142h128q49 0 88.5 39.5t39.5 88.5q0 29 17 46.5t47 17.5z" />
</svg>
