<?xml version="1.0" standalone="no"?>
<!DOCTYPE svg PUBLIC "-//W3C//DTD SVG 1.1//EN" "http://www.w3.org/Graphics/SVG/1.1/DTD/svg11.dtd" >
<svg xmlns="http://www.w3.org/2000/svg" xmlns:xlink="http://www.w3.org/1999/xlink" version="1.1" viewBox="-10 0 972 1024">
   <path fill="currentColor"
d="M564 15q160 0 274 113.5t114 274.5q0 160 -113.5 273.5t-274.5 113.5q-131 0 -234 -79l-31 32q5 44 -25 74l-123 124q-28 26 -63 26q-36 0 -62 -26t-26 -62.5t26 -62.5l123 -123q31 -30 74 -25l32 -31q-79 -105 -79 -234q0 -161 114 -274.5t274 -113.5zM564 685
q116 0 199 -83t83 -199t-83 -199t-199 -83t-199 83t-83 199t83 199t199 83zM512 250l194 123q17 12 17 30t-17 30l-194 123q-6 5 -18 5q-10 0 -17 -4q-19 -9 -19 -31v-246q0 -22 19 -31q19 -10 35 1z" />
</svg>
