<?xml version="1.0" standalone="no"?>
<!DOCTYPE svg PUBLIC "-//W3C//DTD SVG 1.1//EN" "http://www.w3.org/Graphics/SVG/1.1/DTD/svg11.dtd" >
<svg xmlns="http://www.w3.org/2000/svg" xmlns:xlink="http://www.w3.org/1999/xlink" version="1.1" viewBox="-10 0 1034 1024">
   <path fill="currentColor"
d="M86 220q0 32 23 54.5t55 22.5h561q32 0 54.5 -22.5t22.5 -54.5t-22.5 -54.5t-54.5 -22.5h-561q-32 0 -55 22.5t-23 54.5zM86 491q0 32 23 54.5t55 22.5h696q32 0 55 -22.5t23 -54.5t-23 -54.5t-55 -22.5h-696q-32 0 -55 22.5t-23 54.5zM86 762q0 32 23 54.5t55 22.5h406
q32 0 55 -22.5t23 -54.5t-23 -54.5t-55 -22.5h-406q-32 0 -55 22.5t-23 54.5z" />
</svg>
