<?xml version="1.0" standalone="no"?>
<!DOCTYPE svg PUBLIC "-//W3C//DTD SVG 1.1//EN" "http://www.w3.org/Graphics/SVG/1.1/DTD/svg11.dtd" >
<svg xmlns="http://www.w3.org/2000/svg" xmlns:xlink="http://www.w3.org/1999/xlink" version="1.1" viewBox="-10 0 818 1024">
   <path fill="currentColor"
d="M554 69q23 10 23 34v414l-251 -251l188 -189q19 -18 40 -8zM89 115l698 699q11 10 11 26t-11 26q-11 11 -26 11t-26 -11l-699 -699q-10 -11 -10 -26t10 -26q11 -11 26.5 -11t26.5 11zM504 721l73 74v94q0 24 -23 34q-6 3 -14 3q-15 0 -26 -11l-271 -271h-206
q-15 0 -26 -11t-11 -26v-221q0 -15 11 -26t26 -11h95l73 74z" />
</svg>
