<?xml version="1.0" standalone="no"?>
<!DOCTYPE svg PUBLIC "-//W3C//DTD SVG 1.1//EN" "http://www.w3.org/Graphics/SVG/1.1/DTD/svg11.dtd" >
<svg xmlns="http://www.w3.org/2000/svg" xmlns:xlink="http://www.w3.org/1999/xlink" version="1.1" viewBox="-10 0 989 1024">
   <path fill="currentColor"
d="M851 541l86 51q9 5 16 14q12 16 12 37q0 9 -5 21l-9 24q-6 14 -22 25q-15 10 -31 10h-3h-5q-2 0 -8 -2l-95 -27q-26 34 -41 49q-25 24 -49 39l26 96q5 22 -4 41t-31 27l-24 10q-1 1 -2 1q-2 1 -3 1q-8 2 -11 2h-5q-17 0 -28 -9q-16 -7 -23 -20l-49 -86q-24 3 -28 3
q-5 1 -15 1q-4 1 -16 1q-11 0 -15 -1q-13 0 -18 -1q-6 0 -16 -2q-3 0 -8 -1t-8 -1l-51 85q-7 13 -20 20q-13 8 -29 8h-5q-5 0 -7 -1q-1 0 -10 -3l-25 -11q-17 -7 -28 -28q-11 -19 -4 -40l26 -95q-35 -29 -47 -42q-27 -27 -40 -48l-97 25q-1 1 -3 1h-4q-1 1 -4 1h-3
q-20 0 -32 -9q-17 -13 -22 -26l-9 -25q-8 -22 -1 -42q7 -19 26 -30l86 -48q-5 -26 -5 -64q0 -31 6 -61l-85 -51q-21 -14 -26 -32q-6 -19 2 -40l9 -24q12 -21 29 -30q20 -9 39 -3l97 26q16 -21 41 -48q22 -22 48 -39l-24 -96q-5 -19 5 -41q9 -20 28 -26l24 -11q11 -4 22 -4
q8 0 19 3q21 8 30 26l50 86q3 -1 8 -1t7 -1q5 -1 14 -1q6 0 16 -0.5t14 -0.5h17l33 3q3 1 8 1.5t8 0.5l50 -85q8 -9 15 -15q14 -13 38 -13q10 0 19 4l24 11q21 8 30 27q9 23 4 42l-27 95q23 17 48 41q15 16 39 48l96 -25q22 -6 41 4q17 8 27 31l10 24q5 9 5 20t-4 20
q-9 22 -26 32l-87 49q4 19 4 61q0 37 -5 62zM391 697q14 7 46 13q22 6 47 6q33 0 70 -10q71 -24 114 -76q56 -65 56 -154q0 -45 -17 -90q-35 -89 -129 -131q-6 -3 -45 -14q-21 -4 -49 -4q-71 0 -132 39q-58 38 -88 107q-19 46 -19 90q0 47 17 93q17 42 52 78q29 31 77 53z
" />
</svg>
