<?xml version="1.0" standalone="no"?>
<!DOCTYPE svg PUBLIC "-//W3C//DTD SVG 1.1//EN" "http://www.w3.org/Graphics/SVG/1.1/DTD/svg11.dtd" >
<svg xmlns="http://www.w3.org/2000/svg" xmlns:xlink="http://www.w3.org/1999/xlink" version="1.1" viewBox="-10 0 1034 1024">
   <path fill="currentColor"
d="M274 213l197 198q13 12 13 29.5t-13 30.5t-30 13t-30 -13l-198 -197v96q0 17 -12.5 29.5t-29.5 12.5q-18 0 -30.5 -12.5t-12.5 -29.5v-199q0 -18 12.5 -30.5t30.5 -12.5h199q17 0 29.5 12.5t12.5 30.5q0 17 -12.5 29.5t-29.5 12.5h-96zM853 612q18 0 30.5 12.5t12.5 29.5
v199q0 18 -12.5 30.5t-30.5 12.5h-199q-17 0 -29.5 -12.5t-12.5 -30.5q0 -17 12.5 -29.5t29.5 -12.5h96l-197 -198q-13 -12 -13 -29.5t13 -30.5t30.5 -13t29.5 13l198 197v-96q0 -17 12.5 -29.5t29.5 -12.5z" />
</svg>
