<?xml version="1.0" standalone="no"?>
<!DOCTYPE svg PUBLIC "-//W3C//DTD SVG 1.1//EN" "http://www.w3.org/Graphics/SVG/1.1/DTD/svg11.dtd" >
<svg xmlns="http://www.w3.org/2000/svg" xmlns:xlink="http://www.w3.org/1999/xlink" version="1.1" viewBox="-10 0 1232 1024">
   <path fill="currentColor"
d="M160 351q66 0 113 47q46 48 46 113q0 66 -46 112q-47 47 -113 47t-113 -47q-47 -45 -47 -112q0 -66 47 -113t113 -47zM606 351q66 0 113 47q46 48 46 113q0 66 -46 112q-47 47 -113 47q-67 0 -112 -47q-47 -45 -47 -112q0 -66 47 -113q45 -47 112 -47zM1052 351
q66 0 113 47t47 113q0 67 -47 112q-47 47 -113 47q-67 0 -112 -47q-47 -45 -47 -112q0 -66 47 -113q45 -47 112 -47z" />
</svg>
