<?xml version="1.0" standalone="no"?>
<!DOCTYPE svg PUBLIC "-//W3C//DTD SVG 1.1//EN" "http://www.w3.org/Graphics/SVG/1.1/DTD/svg11.dtd" >
<svg xmlns="http://www.w3.org/2000/svg" xmlns:xlink="http://www.w3.org/1999/xlink" version="1.1" viewBox="-10 0 759 1024">
   <path fill="currentColor"
d="M608 159q-23 -16 -37 -23q-18 -8 -41 -13l58 -78q18 -26 55 -33q35 -5 61 15q28 22 34 55q5 33 -16 63l-58 77q-9 -16 -24 -34q-11 -13 -32 -29zM565 216q19 13 32 33q12 20 18 41l-357 483q-11 -21 -24 -35q-15 -16 -33 -30q-21 -14 -37 -22q-5 -2 -40 -13l356 -484
q18 0 44 7q22 6 41 20zM159 765q16 12 31 32q12 18 18 38l-208 146l78 -241q21 0 42 6q22 6 39 19z" />
</svg>
