<?xml version="1.0" standalone="no"?>
<!DOCTYPE svg PUBLIC "-//W3C//DTD SVG 1.1//EN" "http://www.w3.org/Graphics/SVG/1.1/DTD/svg11.dtd" >
<svg xmlns="http://www.w3.org/2000/svg" xmlns:xlink="http://www.w3.org/1999/xlink" version="1.1" viewBox="-11 0 1045 1024">
   <path fill="currentColor"
d="M261 207q-93 54 -140.5 150t-33.5 203q2 17 -9 31t-28 16h-5q-16 0 -28 -10.5t-14 -26.5q-17 -131 41.5 -250t173.5 -186q15 -8 32 -4t26 20q9 15 4.5 32t-19.5 25zM805 134q115 67 173.5 186t41.5 250q-2 16 -14 26.5t-28 10.5h-5q-17 -2 -28 -16t-9 -31
q14 -107 -33.5 -203t-140.5 -150q-15 -8 -19.5 -25t4.5 -32q9 -16 26 -20t32 4zM335 349q-48 29 -72.5 78.5t-17.5 104.5q2 17 -9 31t-28 16q-2 1 -5 1q-16 0 -28 -10.5t-14 -26.5q-10 -81 25.5 -153.5t105.5 -113.5q16 -8 32.5 -4t25.5 19q9 16 4.5 33t-19.5 25zM731 276
q70 41 105.5 113.5t25.5 153.5q-2 16 -14 26.5t-28 10.5q-3 0 -5 -1q-17 -2 -28 -16t-9 -31q7 -55 -17.5 -104.5t-72.5 -78.5q-15 -8 -19.5 -25t4.5 -33q9 -15 25.5 -19t32.5 4zM715 709q12 12 12 29t-12.5 29.5t-30.5 12.5h-89q-7 29 -30.5 47.5t-53.5 18.5
q-31 0 -54 -18.5t-29 -47.5h-90q-31 0 -41 -27q-10 -26 11 -45q28 -47 28 -131q-2 -116 61 -179q26 -26 63 -39q2 -20 17 -33.5t35 -13.5t35.5 14t16.5 34q34 12 62 38q61 63 61 179q0 19 1.5 37t3.5 30.5t5 23t6 18t5.5 12.5t4.5 8z" />
</svg>
