<?xml version="1.0" standalone="no"?>
<!DOCTYPE svg PUBLIC "-//W3C//DTD SVG 1.1//EN" "http://www.w3.org/Graphics/SVG/1.1/DTD/svg11.dtd" >
<svg xmlns="http://www.w3.org/2000/svg" xmlns:xlink="http://www.w3.org/1999/xlink" version="1.1" viewBox="-10 0 1034 1024">
   <path fill="currentColor"
d="M441 825v-626q0 -12 -8.5 -20t-20.5 -8h-99q-12 0 -20.5 8t-8.5 20v626q0 12 8.5 20t20.5 8h99q12 0 20.5 -8t8.5 -20zM740 825v-626q0 -12 -8.5 -20t-20.5 -8h-99q-12 0 -20.5 8t-8.5 20v626q0 12 8.5 20t20.5 8h99q12 0 20.5 -8t8.5 -20z" />
</svg>
