<?xml version="1.0" standalone="no"?>
<!DOCTYPE svg PUBLIC "-//W3C//DTD SVG 1.1//EN" "http://www.w3.org/Graphics/SVG/1.1/DTD/svg11.dtd" >
<svg xmlns="http://www.w3.org/2000/svg" xmlns:xlink="http://www.w3.org/1999/xlink" version="1.1" viewBox="-10 0 1046 1024">
   <path fill="currentColor"
d="M493 947l510 -787q29 -39 21 -87q-8 -47 -49 -73q-38 -27 -90 -20q-49 8 -77 48l-425 655l-165 -220q-28 -40 -77 -48q-51 -7 -89 20q-41 25 -50 73q-8 48 21 87l270 359h1q0 2 2 2v2q1 1 2 1v1l2 2l4 4l2 3h1l2 2l3 2q3 3 4 5q1 1 3 1q1 1 2 1q0 1 1 1v1h1l1 1v1
q2 0 6 2q1 1 3 1l4 3h2l2 2q1 1 3 1l1 1h2q2 2 6 2q1 1 2 1q2 1 3 1q2 1 6 1q1 1 4 1q1 1 5 1q5 0 8 1h4h2h2l1 1q1 0 2 -1h3h4h5q2 -1 5 -1q2 0 10 -2q1 -1 3 -1q3 -1 4 -1l6 -2q1 0 2 -1h1q2 -2 5 -3l13 -6l3 -1v-1h1l1 -1h1q0 -2 2 -2l1 -1h1q0 -2 2 -2q2 -1 5 -4
q2 -2 8 -9l5 -5l1 -1h1l1 -1q0 -1 1 -2l1 -1l2 -3v-1h1q0 -1 1 -2z" />
</svg>
