<?xml version="1.0" standalone="no"?>
<!DOCTYPE svg PUBLIC "-//W3C//DTD SVG 1.1//EN" "http://www.w3.org/Graphics/SVG/1.1/DTD/svg11.dtd" >
<svg xmlns="http://www.w3.org/2000/svg" xmlns:xlink="http://www.w3.org/1999/xlink" version="1.1" viewBox="-10 0 690 1024">
   <path fill="currentColor"
d="M643 444q-36 8 -63.5 -1t-37.5 -22l-10 -13q14 -47 14 -85q0 -40 -13.5 -61t-35.5 -21q-25 0 -39.5 23t-14.5 65q0 86 48 136t123 50q28 0 56 -7v92q-52 11 -92 11q-43 92 -112 172.5t-106 101.5q-36 21 -74 -1q-19 -12 -42 -33t-61 -72.5t-70.5 -118t-64 -177
t-48.5 -242.5h130q22 193 72.5 315t127.5 216q76 -76 132 -188q-65 -34 -102.5 -102.5t-37.5 -154.5q0 -88 48 -145t130 -57t126 49t44 138q0 72 -27 132z" />
</svg>
