<?xml version="1.0" standalone="no"?>
<!DOCTYPE svg PUBLIC "-//W3C//DTD SVG 1.1//EN" "http://www.w3.org/Graphics/SVG/1.1/DTD/svg11.dtd" >
<svg xmlns="http://www.w3.org/2000/svg" xmlns:xlink="http://www.w3.org/1999/xlink" version="1.1" viewBox="-11 0 1017 1024">
   <path fill="currentColor"
d="M996 513q-2 56 -25 97q-27 47 -68 69q2 4 2 6q-1 3 0 6q1 2 1 6q-2 3 0 6q-2 80 -54 134q-54 56 -128 56q-12 0 -32 -4q-24 -5 -31 -8q-25 50 -65 77q-46 30 -99 30t-96 -30q-48 -33 -66 -77q-13 5 -31 8q-24 4 -33 4q-75 0 -128 -56q-53 -57 -52 -134q-1 -3 0 -6v-6
q-1 -3 0 -6t0 -6q-43 -28 -66 -69q-26 -46 -25 -97q-1 -50 28 -102q24 -43 73 -68l-4 -16q-2 -5 -4 -17q-1 -3 -1.5 -8.5t-0.5 -8.5q-2 -8 0 -17q-1 -76 52 -134q51 -56 128 -56q15 0 33 3q13 2 31 9q19 -45 66 -77q41 -29 96 -29t99 29q39 26 65 77q11 -5 31 -9
q15 -3 32 -3q75 0 128 56q52 56 54 134q-1 6 -1 17l-3 17l-3 17q-2 9 -6 16q45 21 75 68q26 42 28 102zM731 392h1q15 -21 15 -37q-2 -24 -16 -35q-12 -15 -35 -15q-25 0 -36 15l-241 240l-83 -84q-18 -15 -36 -15q-17 0 -37 15q-15 21 -14 36q0 24 15 36l119 120q7 6 17 11
q9 4 20 4t19 -4q12 -6 16 -11h1q-2 0 0 0z" />
</svg>
