<?xml version="1.0" standalone="no"?>
<!DOCTYPE svg PUBLIC "-//W3C//DTD SVG 1.1//EN" "http://www.w3.org/Graphics/SVG/1.1/DTD/svg11.dtd" >
<svg xmlns="http://www.w3.org/2000/svg" xmlns:xlink="http://www.w3.org/1999/xlink" version="1.1" viewBox="-10 0 1044 1024">
   <path fill="currentColor"
d="M256 0h512q108 0 182 74t74 182v512q0 108 -74 182t-182 74h-512q-108 0 -182 -74t-74 -182v-512q0 -108 74 -182t182 -74zM595 797q83 -30 133 -82t50 -107q0 -97 -81 -206q-37 -49 -74.5 -105t-57.5 -87t-20 -32q-5 -8 -14 -6q-9 4 -9 12q0 11 -4.5 40.5t-30 95
t-66.5 117.5q-21 -50 -25 -124q-2 -10 -11 -12q-11 0 -14 9q-14 45 -98 157q-62 81 -39 164q10 40 39.5 79t62 66t68 49t55.5 32t26 12q10 5 14 -3q6 -7 1 -15q-82 -173 -5 -262q52 -61 60 -125q34 58 49.5 108.5t12 89.5t-11.5 62.5t-22 49.5q-1 1 -2 3t-2.5 7.5t1.5 8.5
q5 6 15 4zM522 3270h38q8 0 8 8v38q0 8 -8 8h-38q-8 0 -8 -8v-38q0 -8 8 -8zM546 3312q9 -3 9 -10q0 -6 -4 -11l-8 -12h-1v1q0 7 -5 13q-2 -2 -2 -7h-1q-1 3 -5 9q-3 3 -2 8q1 4 4.5 7t6 4.5t3.5 1.5v-1q-7 -7 0 -14q1 -2 2 -5q1 -1 1 -2q6 10 1 17v1h1z" />
</svg>
