<?xml version="1.0" standalone="no"?>
<!DOCTYPE svg PUBLIC "-//W3C//DTD SVG 1.1//EN" "http://www.w3.org/Graphics/SVG/1.1/DTD/svg11.dtd" >
<svg xmlns="http://www.w3.org/2000/svg" xmlns:xlink="http://www.w3.org/1999/xlink" version="1.1" viewBox="-10 0 1034 1024">
   <path fill="currentColor"
d="M588 417h141q21 0 28 20q7 21 -10 32l-114 82l48 141q7 20 -10 33q-17 12 -34 0l-125 -89l-125 89q-8 6 -16 6q-10 0 -18 -6q-17 -13 -10 -33l48 -141l-114 -82q-17 -11 -10 -32q7 -20 28 -20h141l48 -141q7 -20 28 -20t28 20z" />
</svg>
