<?xml version="1.0" standalone="no"?>
<!DOCTYPE svg PUBLIC "-//W3C//DTD SVG 1.1//EN" "http://www.w3.org/Graphics/SVG/1.1/DTD/svg11.dtd" >
<svg xmlns="http://www.w3.org/2000/svg" xmlns:xlink="http://www.w3.org/1999/xlink" version="1.1" viewBox="-11 0 594 1024">
   <path fill="currentColor"
d="M286 59q117 0 203 83q82 82 84 203q-2 32 -7 58q-9 35 -17 54q-7 20 -35 78l-67 142q-93 193 -119 223q-15 15 -22 18q-8 4 -20 4q-13 0 -19 -4q-13 -7 -22 -18q-13 -14 -48 -81q-89 -174 -139 -284l-36 -78q-2 -9 -8 -27t-7 -27q-8 -38 -7 -58q-1 -118 84 -203
q83 -83 202 -83zM443 412l1 -1q9 -20 10 -32l3 -17q2 -8 0 -17q1 -69 -50 -122q-50 -50 -120 -50t-122 50q-49 49 -51 122q0 3 0.5 8.5t1.5 8.5q0 7 2 17q7 26 11 32l-1 1q23 48 63 75q41 29 96 29q54 0 95 -29q44 -31 61 -75z" />
</svg>
