<?xml version="1.0" standalone="no"?>
<!DOCTYPE svg PUBLIC "-//W3C//DTD SVG 1.1//EN" "http://www.w3.org/Graphics/SVG/1.1/DTD/svg11.dtd" >
<svg xmlns="http://www.w3.org/2000/svg" xmlns:xlink="http://www.w3.org/1999/xlink" version="1.1" viewBox="-10 0 969 1024">
   <path fill="currentColor"
d="M119 196h711q50 0 84.5 35t34.5 84v415q0 50 -34.5 84.5t-84.5 34.5h-711q-49 0 -84 -34.5t-35 -84.5v-415q0 -49 35 -84t84 -35zM119 315v415h711v-415h-711zM208 552q14 0 23 -12l89 -118q7 -10 5.5 -22t-11.5 -20q-10 -7 -21.5 -5.5t-19.5 11.5l-89 119
q-7 10 -5.5 21.5t11.5 19.5q8 6 18 6zM356 552q15 0 24 -12l89 -118q7 -10 5.5 -22.5t-11.5 -19.5t-22 -5.5t-20 11.5l-89 119q-7 10 -5.5 21.5t11.5 19.5q8 6 18 6zM504 552q15 0 24 -12l89 -118q7 -10 5.5 -22t-11.5 -20q-10 -7 -22 -5.5t-20 11.5l-89 119q-16 24 6 41
q9 6 18 6zM652 552q15 0 24 -12l89 -118q7 -10 5.5 -22t-11.5 -20q-10 -7 -22 -5.5t-19 11.5l-89 119q-7 10 -5.5 21.5t11.5 19.5q7 6 17 6zM326 611h-148v60h148v-60zM652 611h-266v60h266v-60z" />
</svg>
