<?xml version="1.0" standalone="no"?>
<!DOCTYPE svg PUBLIC "-//W3C//DTD SVG 1.1//EN" "http://www.w3.org/Graphics/SVG/1.1/DTD/svg11.dtd" >
<svg xmlns="http://www.w3.org/2000/svg" xmlns:xlink="http://www.w3.org/1999/xlink" version="1.1" viewBox="-10 0 1034 1024">
   <path fill="currentColor"
d="M512 228q16 0 26.5 11t10.5 28v436q0 16 -10.5 27t-26.5 11t-26.5 -11t-10.5 -27v-436q0 -17 10.5 -28t26.5 -11zM683 361q15 0 26 11.5t11 26.5v304q0 16 -10.5 27t-26.5 11t-27 -11t-11 -27v-304q0 -15 11 -26.5t27 -11.5zM341 475q16 0 27 11t11 27v190q0 16 -11 27
t-27 11t-26.5 -11t-10.5 -27v-190q0 -16 10.5 -27t26.5 -11z" />
</svg>
