<?xml version="1.0" standalone="no"?>
<!DOCTYPE svg PUBLIC "-//W3C//DTD SVG 1.1//EN" "http://www.w3.org/Graphics/SVG/1.1/DTD/svg11.dtd" >
<svg xmlns="http://www.w3.org/2000/svg" xmlns:xlink="http://www.w3.org/1999/xlink" version="1.1" viewBox="-11 0 1045 1024">
   <path fill="currentColor"
d="M192 0h640q80 0 136 56t56 136v640q0 80 -56 136t-136 56h-640q-80 0 -136.5 -56t-56.5 -136v-640q0 -80 56.5 -136t136.5 -56zM160 591h4q14 -2 21.5 -12.5t6.5 -23.5q-10 -79 25.5 -151.5t105.5 -113.5q11 -7 14.5 -19.5t-3.5 -23.5t-19.5 -14.5t-23.5 2.5
q-86 51 -130.5 140t-31.5 188q1 12 10.5 20t20.5 8zM893 563q13 -99 -31 -188t-130 -140q-11 -6 -24 -2.5t-20 14.5t-3.5 23.5t15.5 19.5q69 41 104.5 113.5t25.5 151.5q-1 13 7 23.5t21 12.5h4q12 0 20.5 -8t10.5 -20zM311 535q-5 -42 13 -79.5t54 -58.5q12 -7 15.5 -19.5
t-3.5 -23.5q-7 -12 -19.5 -15.5t-24.5 3.5q-53 31 -79.5 85.5t-18.5 114.5q1 12 10 20t21 8h4q13 -2 21 -12t7 -23zM775 542q8 -60 -19.5 -114.5t-79.5 -85.5q-11 -7 -24 -3.5t-20 15.5q-6 11 -2.5 23.5t14.5 19.5q36 21 54.5 58.5t13.5 79.5q-2 13 6 23.5t21 11.5h4
q12 0 21.5 -7.5t10.5 -20.5zM574 721h67q13 0 22.5 -9.5t9.5 -22.5t-10 -23l1 1q-21 -26 -21 -99q0 -88 -46 -134q-20 -20 -46 -29q-2 -15 -13 -25.5t-26 -10.5q-16 0 -26.5 10.5t-12.5 25.5q-26 7 -48 29q-46 46 -46 134q0 71 -21 99q-16 13 -8 34q7 20 31 20h67
q5 21 22.5 35.5t40.5 14.5t40.5 -14.5t22.5 -35.5z" />
</svg>
