<?xml version="1.0" standalone="no"?>
<!DOCTYPE svg PUBLIC "-//W3C//DTD SVG 1.1//EN" "http://www.w3.org/Graphics/SVG/1.1/DTD/svg11.dtd" >
<svg xmlns="http://www.w3.org/2000/svg" xmlns:xlink="http://www.w3.org/1999/xlink" version="1.1" viewBox="-10 0 1034 1024">
   <path fill="currentColor"
d="M512 982q203 0 347 -144t144 -347t-144 -347t-347 -144t-347 144t-144 347t144 347t347 144zM512 109q158 0 270 112t112 270t-112 270t-270 112t-270 -112t-112 -270t112 -270t270 -112zM367 473q-23 0 -39 -16t-16 -39v-54q0 -23 16 -39t39 -16q22 0 38 16t16 39v54
q0 23 -16 39t-38 16zM657 473q-22 0 -38 -16t-16 -39v-54q0 -23 16 -39t38 -16q23 0 39 16t16 39v54q0 23 -16 39t-39 16zM752 593q0 1 -0.5 3.5t-0.5 3.5q-20 47 -78 91q-70 55 -161 55t-161 -55q-58 -44 -78 -91l-1 -7q0 -10 7 -17q6 -6 14 -6q7 0 14 4q8 7 27 17
t70.5 24.5t107.5 14.5t107.5 -14.5t70.5 -24.5t27 -17q7 -4 14 -4q8 0 14 6q7 7 7 17z" />
</svg>
