<?xml version="1.0" standalone="no"?>
<!DOCTYPE svg PUBLIC "-//W3C//DTD SVG 1.1//EN" "http://www.w3.org/Graphics/SVG/1.1/DTD/svg11.dtd" >
<svg xmlns="http://www.w3.org/2000/svg" xmlns:xlink="http://www.w3.org/1999/xlink" version="1.1" viewBox="-10 0 1045 1024">
   <path fill="currentColor"
d="M875 128q71 71 110.5 165t38.5 197q1 104 -38.5 197.5t-110.5 164.5q-70 71 -164 110.5t-198 39.5t-197.5 -39.5t-164.5 -110.5q-149 -148 -151 -362q1 -104 40.5 -197.5t110.5 -164.5t164.5 -110.5t197.5 -39.5q103 0 197.5 40t164.5 110zM792 769q114 -113 116 -279
q-2 -165 -116 -279q-117 -115 -280 -115q-79 0 -151.5 30.5t-126.5 84.5q-116 118 -115 279q-1 163 115 279q54 55 126.5 85.5t151.5 30.5q164 0 280 -116zM571 431h105q23 0 43 18q15 15 17 41q-2 27 -17 42q-19 17 -43 17h-163q-25 0 -42 -17q-16 -15 -18 -42l1 -226
q-1 -22 17 -42q15 -17 41 -17q24 0 43 17q15 15 17 42z" />
</svg>
