<?xml version="1.0" standalone="no"?>
<!DOCTYPE svg PUBLIC "-//W3C//DTD SVG 1.1//EN" "http://www.w3.org/Graphics/SVG/1.1/DTD/svg11.dtd" >
<svg xmlns="http://www.w3.org/2000/svg" xmlns:xlink="http://www.w3.org/1999/xlink" version="1.1" viewBox="-10 0 1044 1024">
   <path fill="currentColor"
d="M512 -20q104 0 198.5 40.5t163.5 109.5t109.5 163.5t40.5 198.5t-40.5 198.5t-109.5 163.5t-163.5 109.5t-198.5 40.5t-198.5 -40.5t-163.5 -109.5t-109.5 -163.5t-40.5 -198.5t40.5 -198.5t109.5 -163.5t163.5 -109.5t198.5 -40.5zM512 890q165 0 281.5 -116.5
t116.5 -281.5t-116.5 -281.5t-281.5 -116.5t-281.5 116.5t-116.5 281.5t116.5 281.5t281.5 116.5zM695 292q20 14 24.5 36.5t-8.5 42.5q-109 170 -170 263l-11 17q-21 33 -24 37l-3 5q-2 4 -8 10t-14 10q-12 6 -26 6q-24 0 -40 -16l-114 -114q-17 -17 -17 -40t17 -40
t40.5 -17t40.5 17l64 64l170 -264q13 -20 36 -25t43 8z" />
</svg>
