<?xml version="1.0" standalone="no"?>
<!DOCTYPE svg PUBLIC "-//W3C//DTD SVG 1.1//EN" "http://www.w3.org/Graphics/SVG/1.1/DTD/svg11.dtd" >
<svg xmlns="http://www.w3.org/2000/svg" xmlns:xlink="http://www.w3.org/1999/xlink" version="1.1" viewBox="-10 0 1022 1024">
   <path fill="currentColor"
d="M198 417q-83 0 -139 -58q-58 -58 -58 -139q0 -82 58 -140q56 -58 139 -58q66 0 120 41q51 39 70 103h560q24 0 38 15q16 18 16 39q0 19 -16 37q-15 17 -38 17h-560q-18 61 -70 102t-120 41zM198 130q-37 0 -63 26q-27 25 -27 64q0 38 27 63q26 26 63 26t63 -26
q27 -27 27 -63q0 -37 -27 -64q-26 -26 -63 -26zM691 624h257q24 0 38 15q16 18 16 38t-16 38q-14 16 -38 16h-257q-19 64 -70 103q-54 41 -120 41t-120 -41q-51 -39 -70 -103h-257q-22 0 -38 -16t-16 -38t16 -38q15 -15 38 -15h257q19 -64 70 -103q54 -41 120 -41t120 41
q51 39 70 103zM501 767q37 0 63 -26q27 -27 27 -64q0 -36 -27 -63q-26 -26 -63 -26t-63 26q-27 25 -27 63q0 39 27 64q26 26 63 26z" />
</svg>
