<?xml version="1.0" standalone="no"?>
<!DOCTYPE svg PUBLIC "-//W3C//DTD SVG 1.1//EN" "http://www.w3.org/Graphics/SVG/1.1/DTD/svg11.dtd" >
<svg xmlns="http://www.w3.org/2000/svg" xmlns:xlink="http://www.w3.org/1999/xlink" version="1.1" viewBox="-10 0 1044 1024">
   <path fill="currentColor"
d="M228 160h720q32 0 54 22t22 54v417q0 31 -22 53.5t-54 22.5h-76v76q0 31 -22.5 53t-53.5 22h-720q-31 0 -53.5 -22t-22.5 -53v-418q0 -31 22 -53.5t54 -22.5h76v-75q0 -32 22 -54t54 -22zM948 634v-379q0 -19 -19 -19h-682q-19 0 -19 19v56h568q32 0 54 22.5t22 53.5v266
h57q8 0 13.5 -5.5t5.5 -13.5zM796 786v-380q0 -8 -5.5 -13.5t-13.5 -5.5h-682q-8 0 -13.5 5.5t-5.5 13.5v380q0 8 5.5 13.5t13.5 5.5h682q8 0 13.5 -5.5t5.5 -13.5zM190 558h208q16 0 27 -11t11 -27t-11 -27t-27 -11h-208q-16 0 -27 11t-11 27t11 27t27 11zM721 668v-144
q0 -17 -12.5 -29.5t-29.5 -12.5h-145q-17 0 -29 12.5t-12 29.5v144q0 17 12 29.5t29 12.5h145q17 0 29.5 -12.5t12.5 -29.5zM190 710h139q16 0 26.5 -11t10.5 -27t-10.5 -27t-26.5 -11h-139q-16 0 -27 11t-11 27t11 27t27 11z" />
</svg>
