<?xml version="1.0" standalone="no"?>
<!DOCTYPE svg PUBLIC "-//W3C//DTD SVG 1.1//EN" "http://www.w3.org/Graphics/SVG/1.1/DTD/svg11.dtd" >
<svg xmlns="http://www.w3.org/2000/svg" xmlns:xlink="http://www.w3.org/1999/xlink" version="1.1" viewBox="-10 0 1044 1024">
   <path fill="currentColor"
d="M512 0q212 0 362 150t150 362t-150 362t-362 150t-362 -150t-150 -362t150 -362t362 -150zM512 749q19 0 56 -27t75 -67.5t66 -97t28 -108.5q0 -47 -33 -84t-79 -37q-65 0 -113 77q-48 -77 -112 -77q-46 0 -79.5 37t-33.5 84q0 52 28 108.5t66 97t75 67.5t56 27z" />
</svg>
