<?xml version="1.0" standalone="no"?>
<!DOCTYPE svg PUBLIC "-//W3C//DTD SVG 1.1//EN" "http://www.w3.org/Graphics/SVG/1.1/DTD/svg11.dtd" >
<svg xmlns="http://www.w3.org/2000/svg" xmlns:xlink="http://www.w3.org/1999/xlink" version="1.1" viewBox="-10 0 1044 1024">
   <path fill="currentColor"
d="M512 -20q104 0 198.5 40.5t163.5 109.5t109.5 163.5t40.5 198.5t-40.5 198.5t-109.5 163.5t-163.5 109.5t-198.5 40.5t-198.5 -40.5t-163.5 -109.5t-109.5 -163.5t-40.5 -198.5t40.5 -198.5t109.5 -163.5t163.5 -109.5t198.5 -40.5zM512 94q-165 0 -281.5 116.5
t-116.5 281.5t116.5 281.5t281.5 116.5t281.5 -116.5t116.5 -281.5t-116.5 -281.5t-281.5 -116.5zM512 208q44 0 69 22.5t25 52.5q0 24 -57 274q-7 30 -37 30t-37 -30q-58 -245 -58 -274q0 -30 25 -52.5t70 -22.5zM587 701q0 -31 -22 -53.5t-53 -22.5q-32 0 -54 22.5
t-22 53.5t22.5 53t53.5 22t53 -22t22 -53z" />
</svg>
