<?xml version="1.0" standalone="no"?>
<!DOCTYPE svg PUBLIC "-//W3C//DTD SVG 1.1//EN" "http://www.w3.org/Graphics/SVG/1.1/DTD/svg11.dtd" >
<svg xmlns="http://www.w3.org/2000/svg" xmlns:xlink="http://www.w3.org/1999/xlink" version="1.1" viewBox="-10 0 1324 1024">
   <path fill="currentColor"
d="M611 538l61 37q10 6 13 9q5 6 6 13q2 8 2 14q0 5 -1 7l-2 8l-8 18q-1 5 -6 10l-4 4q-3 3 -5 4q-1 0 -2 1t-2 1l-6 3q-8 2 -12 2h-1h-1h-1q-1 0 -1 -1h-1h-1h-1h-1h-1q-1 0 -1 -1h-1h-1l-68 -19l-3 4q-1 2 -4 5q-2 4 -3 5l-4 4l-3 4l-4 4l-4 4q-3 3 -9 7l-4 4q-4 3 -9 8
l-4 3l-4 4l-4 3l-6 4l19 69q1 3 1 8v7q-2 10 -5 14l-4 6q-1 2 -4 5q-2 2 -14 9l-16 7h-1h-1l-1 1h-1h-1l-1 1h-2h-1h-1h-1h-1h-1q-1 1 -2 1h-2q-3 0 -9 -2q-1 -1 -3 -1t-3 -1q-1 0 -2.5 -0.5t-2.5 -1.5q-3 -1 -8 -6q-4 -5 -6 -9l-37 -62h-2h-2q-1 1 -2 1h-3h-2h-3q-1 1 -3 1
h-3h-2h-2q-1 1 -3 1h-4h-2h-3h-2h-3h-3h-3h-3h-3q-4 0 -6 -1h-6q-4 0 -6 -1h-6q-1 -1 -2 -1t-2 -1h-4h-4l-36 62q-1 4 -6 7l-4 4q-1 1 -5 3q-1 1 -2 1t-2 1q-1 0 -2.5 0.5t-2.5 1.5q-8 2 -12 2q-1 0 -1 -1h-1h-1h-1h-1h-1h-1l-1 -1q-2 0 -3 -1l-4 -1l-19 -7l-6 -4
q-6 -4 -10 -10l-4 -6q-3 -12 -3 -14q-1 -4 1 -15l18 -69q-3 -2 -8 -7q-3 -2 -8 -7q-6 -4 -9 -7l-8 -8q-8 -10 -15 -17q-9 -9 -14 -18l-70 18l-1 1h-3h-1h-1l-3 1q-5 0 -7 -1q-4 0 -10 -4q-8 -4 -11 -7l-4 -4q-1 -1 -3 -5q-3 -3 -4 -5l-7 -18q-3 -5 -3 -15q0 -5 1 -8
q0 -8 4 -13q6 -8 10 -11q2 -1 5 -4l63 -35v-6q-1 -2 -1 -6v-5q-1 -2 -1 -6v-6v-6q-1 -1 -1 -5v-5v-6v-6q0 -3 1 -5q0 -2 0.5 -6t0.5 -6q0 -4 1 -6v-5v-5l-60 -36q-3 -1 -7 -5q-5 -3 -8 -12l-4 -6q-2 -10 -2 -15q0 -4 1 -7q1 -1 1.5 -3.5t0.5 -3.5l8 -17q1 -5 9 -13
q7 -7 11 -8q4 -3 15 -5q5 0 13 2l70 19q1 -3 6 -10l4 -4l3 -4l8 -8l8 -8l8 -8q3 -3 5 -4q6 -4 9 -7l4 -4l4 -3l2 -1q1 -1 2 -1l-17 -70q-1 -3 -1 -8q-2 -6 2 -15q0 -1 1 -3t1 -3q1 -4 9 -12q6 -6 11 -7l19 -7q1 -1 2 -1t2 -1l7 -1h3h4h4q1 1 4 1q2 0 3 1q6 1 13 7q2 3 5 5
l3 7l36 62q1 -1 3 -1t3 -1h3h2h3q2 0 3 -1h2h2q4 0 6 -1h5h5h5h4h4h3h2h3h3q1 1 3 1h2h4h3q1 1 3 1q1 0 2 1h3h3q1 1 3 1t3 1l35 -62l3 -4q3 -4 6 -6l2 -2q4 -4 7 -5q6 -3 14 -3h6h4h4l7 3l16 8l8 3q6 4 10 10l4 6l3 6q0 3 0.5 8t0.5 7q0 5 -1 8l-20 69l6 3q3 2 8 7l4 4
q10 8 17 15t15 17q5 5 7 8q2 4 3 5t3 5l69 -18q10 -2 16 -2q10 2 13 5q7 5 12 9q1 1 8 13l6 17q4 7 4 15q0 6 -2 14q0 6 -7 13q-4 4 -12 10l-63 35l3 10q0 8 1 11v11v12v6v5v6q0 4 -1 6l-1 10q-1 2 -1 6t-1 6zM286 636l8 3q1 1 3.5 1.5t3.5 0.5q10 4 15 5q10 2 16 2h8h8
q22 0 45 -6q21 -6 41 -19q22 -15 35 -31q17 -20 23 -39q14 -31 14 -62t-12 -59q-10 -28 -33 -51q-24 -24 -51 -35q-1 0 -2 -1l-2 -1q-3 0 -4 -1l-3 -2q-3 0 -4 -1q-2 0 -3 -1l-8 -3q-4 0 -12 -2q-2 0 -8 -0.5t-8 -0.5h-9q-23 0 -45 6q-26 9 -41 20q-20 13 -34 30
q-18 21 -24 40q-5 9 -9 29q-3 15 -3 32q0 5 2 30q2 15 8 30q5 10 15 27q6 11 20 25q7 7 23 19q12 9 28 15h-1zM1304 411v2q-1 1 -1 2v3v2v2q-1 1 -1 2q0 2 -1 3v2q-2 2 -2 4l-2 2q0 3 -2 3l-4 4l-153 176l-3 3l-3 3l-3 2q-1 1 -2 1q-2 1 -3 1q-3 0 -4 1t-4 1h-4q-1 1 -5 1
q-3 0 -4 -1h-4q-3 0 -4 -1t-4 -1l-3 -2q-1 0 -2 -1l-2 -1l-3 -3l-4 -3l-152 -176l-3 -4l-3 -3q-1 -1 -2.5 -3.5t-1.5 -4.5q0 -3 -1 -5q-1 -1 -1 -5v-4q-1 -1 -1 -4q0 -11 4 -19q5 -10 9 -14t14 -10q4 -3 16 -3h6h4q1 0 7 2q3 0 4 1l3 3q6 2 7 6l122 132l122 -132q5 -5 8 -6
l4 -3q1 -1 3 -1q6 -2 8 -2h4h4q12 0 17 3q10 6 14 10q8 8 10 14t2 19v2z" />
</svg>
