<?xml version="1.0" standalone="no"?>
<!DOCTYPE svg PUBLIC "-//W3C//DTD SVG 1.1//EN" "http://www.w3.org/Graphics/SVG/1.1/DTD/svg11.dtd" >
<svg xmlns="http://www.w3.org/2000/svg" xmlns:xlink="http://www.w3.org/1999/xlink" version="1.1" viewBox="-11 0 1045 1024">
   <path fill="currentColor"
d="M192 0h640q80 0 136 56t56 136v640q0 80 -56 136t-136 56h-640q-80 0 -136.5 -56t-56.5 -136v-640q0 -80 56.5 -136t136.5 -56zM649 588l166 -134q23 -17 15 -43q-8 -27 -37 -27h-179l-66 -166q-9 -26 -36 -26q-28 0 -37 26l-66 166h-179q-29 0 -37 27q-8 26 15 43
l166 134l-91 193q-9 27 14 43q22 17 45 0l170 -138l169 138q23 17 45 0q23 -16 14 -43z" />
</svg>
