<?xml version="1.0" standalone="no"?>
<!DOCTYPE svg PUBLIC "-//W3C//DTD SVG 1.1//EN" "http://www.w3.org/Graphics/SVG/1.1/DTD/svg11.dtd" >
<svg xmlns="http://www.w3.org/2000/svg" xmlns:xlink="http://www.w3.org/1999/xlink" version="1.1" viewBox="-10 0 1249 1024">
   <path fill="currentColor"
d="M894 527v102q0 83 -47.5 151t-127 97.5t-163.5 5.5q-86 -24 -139 -96.5t-53 -163.5q-1 -33 -2.5 -48.5t-8.5 -39t-21 -53.5q-15 -28 -5.5 -59.5t44.5 -31.5q21 0 40 17.5t32 43.5t20 44t11 31h1v-346q0 -25 20 -42t47 -12q20 4 32.5 20t12.5 37v235q0 -26 20 -42.5
t47 -11.5q20 4 32.5 20t12.5 36v17q24 -25 56 -17q18 4 29.5 20t11.5 35v18q17 -19 42 -19q22 0 38 15t18 37zM179 354q17 8 17 25v280q0 19 -17 25q-4 3 -11 3q-11 0 -20 -9l-140 -138q-8 -12 -8 -20q0 -13 8 -20l140 -140q14 -14 31 -6zM1081 360l140 140q8 7 8 20
q0 8 -8 20l-140 138q-9 9 -20 9q-7 0 -11 -3q-17 -6 -17 -25v-280q0 -17 17 -25t31 6z" />
</svg>
