<?xml version="1.0" standalone="no"?>
<!DOCTYPE svg PUBLIC "-//W3C//DTD SVG 1.1//EN" "http://www.w3.org/Graphics/SVG/1.1/DTD/svg11.dtd" >
<svg xmlns="http://www.w3.org/2000/svg" xmlns:xlink="http://www.w3.org/1999/xlink" version="1.1" viewBox="-10 0 1044 1024">
   <path fill="currentColor"
d="M512 0q104 0 198.5 40.5t163.5 109.5t109.5 163.5t40.5 198.5t-40.5 198.5t-109.5 163.5t-163.5 109.5t-198.5 40.5t-198.5 -40.5t-163.5 -109.5t-109.5 -163.5t-40.5 -198.5t40.5 -198.5t109.5 -163.5t163.5 -109.5t198.5 -40.5zM550 702v-437q0 -15 -11 -26t-27 -11
t-27 11t-11 26v437q0 16 11 27t27 11t27 -11t11 -27zM721 702v-304q0 -16 -11 -27t-27 -11t-27 11t-11 27v304q0 16 11 27t27 11t27 -11t11 -27zM379 702v-190q0 -16 -11 -27t-27 -11t-27 11t-11 27v190q0 16 11 27t27 11t27 -11t11 -27z" />
</svg>
