<?xml version="1.0" standalone="no"?>
<!DOCTYPE svg PUBLIC "-//W3C//DTD SVG 1.1//EN" "http://www.w3.org/Graphics/SVG/1.1/DTD/svg11.dtd" >
<svg xmlns="http://www.w3.org/2000/svg" xmlns:xlink="http://www.w3.org/1999/xlink" version="1.1" viewBox="-10 0 607 1024">
   <path fill="currentColor"
d="M32 416l374 -374q17 -17 35 -24q19 -8 41 -8q46 0 74 30q31 35 30 76q1 16 -7 40q-5 13 -23 35l-301 300l301 300q16 16 23 33q8 26 7 41q1 40 -30 75q-29 32 -74 32q-22 0 -41 -8q-18 -7 -35 -24l-374 -375q-10 -8 -23 -35q-7 -15 -9 -40q2 -25 9 -40q12 -24 23 -34z
" />
</svg>
